<mxfile host="app.diagrams.net" modified="2023-12-17T20:28:22.686Z" agent="Mozilla/5.0 (Windows NT 10.0; Win64; x64) AppleWebKit/537.36 (KHTML, like Gecko) Chrome/120.0.0.0 Safari/537.36" etag="BohuKUQVoVS6QLql-tq7" version="22.1.11" type="github" pages="3">
  <diagram name="Page-1" id="82RbrSmhpKgGH92bQ-xr">
    <mxGraphModel dx="1050" dy="1753" grid="1" gridSize="10" guides="1" tooltips="1" connect="1" arrows="1" fold="1" page="1" pageScale="1" pageWidth="850" pageHeight="1100" math="0" shadow="0">
      <root>
        <mxCell id="0" />
        <mxCell id="1" parent="0" />
        <object label="" id="3-aWoQYCV-mFXdH8d4EW-5">
          <mxCell style="strokeWidth=2;html=1;shape=mxgraph.flowchart.annotation_2;align=left;labelPosition=right;pointerEvents=1;rotation=90;" parent="1" vertex="1">
            <mxGeometry x="422.5" y="-340" width="65" height="315" as="geometry" />
          </mxCell>
        </object>
        <mxCell id="3-aWoQYCV-mFXdH8d4EW-6" value="dsal" style="whiteSpace=wrap;html=1;aspect=fixed;" parent="1" vertex="1">
          <mxGeometry x="430" y="-265" width="50" height="50" as="geometry" />
        </mxCell>
        <mxCell id="3-aWoQYCV-mFXdH8d4EW-8" value="use case" style="whiteSpace=wrap;html=1;aspect=fixed;" parent="1" vertex="1">
          <mxGeometry x="270" y="-155" width="50" height="50" as="geometry" />
        </mxCell>
        <mxCell id="3-aWoQYCV-mFXdH8d4EW-9" value="labelling" style="whiteSpace=wrap;html=1;aspect=fixed;" parent="1" vertex="1">
          <mxGeometry x="590" y="-155" width="50" height="50" as="geometry" />
        </mxCell>
        <object label="" id="3-aWoQYCV-mFXdH8d4EW-10">
          <mxCell style="strokeWidth=2;html=1;shape=mxgraph.flowchart.annotation_2;align=left;labelPosition=right;pointerEvents=1;rotation=90;" parent="1" vertex="1">
            <mxGeometry x="262.5" y="-145" width="65" height="145" as="geometry" />
          </mxCell>
        </object>
        <mxCell id="3-aWoQYCV-mFXdH8d4EW-12" value="object detection" style="whiteSpace=wrap;html=1;aspect=fixed;" parent="1" vertex="1">
          <mxGeometry x="195" y="-45" width="50" height="50" as="geometry" />
        </mxCell>
        <mxCell id="3-aWoQYCV-mFXdH8d4EW-13" value="object&lt;br&gt;segmentation" style="whiteSpace=wrap;html=1;aspect=fixed;" parent="1" vertex="1">
          <mxGeometry x="345" y="-45" width="50" height="50" as="geometry" />
        </mxCell>
        <object label="" id="3-aWoQYCV-mFXdH8d4EW-16">
          <mxCell style="strokeWidth=2;html=1;shape=mxgraph.flowchart.annotation_2;align=left;labelPosition=right;pointerEvents=1;rotation=90;" parent="1" vertex="1">
            <mxGeometry x="582.5" y="-145" width="65" height="145" as="geometry" />
          </mxCell>
        </object>
        <mxCell id="3-aWoQYCV-mFXdH8d4EW-17" value="Daily Data" style="whiteSpace=wrap;html=1;aspect=fixed;" parent="1" vertex="1">
          <mxGeometry x="515" y="-45" width="50" height="50" as="geometry" />
        </mxCell>
        <mxCell id="3-aWoQYCV-mFXdH8d4EW-18" value="month" style="whiteSpace=wrap;html=1;aspect=fixed;" parent="1" vertex="1">
          <mxGeometry x="665" y="-45" width="50" height="50" as="geometry" />
        </mxCell>
        <object label="" id="3-aWoQYCV-mFXdH8d4EW-22">
          <mxCell style="strokeWidth=2;html=1;shape=mxgraph.flowchart.annotation_2;align=left;labelPosition=right;pointerEvents=1;rotation=90;" parent="1" vertex="1">
            <mxGeometry x="187.5" y="-35" width="65" height="145" as="geometry" />
          </mxCell>
        </object>
        <mxCell id="3-aWoQYCV-mFXdH8d4EW-23" value="person" style="whiteSpace=wrap;html=1;aspect=fixed;" parent="1" vertex="1">
          <mxGeometry x="120" y="65" width="50" height="50" as="geometry" />
        </mxCell>
        <mxCell id="3-aWoQYCV-mFXdH8d4EW-24" value="mobile" style="whiteSpace=wrap;html=1;aspect=fixed;" parent="1" vertex="1">
          <mxGeometry x="270" y="65" width="50" height="50" as="geometry" />
        </mxCell>
        <object label="" id="3-aWoQYCV-mFXdH8d4EW-25">
          <mxCell style="strokeWidth=2;html=1;shape=mxgraph.flowchart.annotation_2;align=left;labelPosition=right;pointerEvents=1;rotation=90;" parent="1" vertex="1">
            <mxGeometry x="251.88" y="76.88" width="241.25" height="100" as="geometry" />
          </mxCell>
        </object>
        <mxCell id="3-aWoQYCV-mFXdH8d4EW-26" value="person" style="whiteSpace=wrap;html=1;aspect=fixed;" parent="1" vertex="1">
          <mxGeometry x="295" y="245" width="50" height="50" as="geometry" />
        </mxCell>
        <mxCell id="3-aWoQYCV-mFXdH8d4EW-27" value="Mobile" style="whiteSpace=wrap;html=1;aspect=fixed;" parent="1" vertex="1">
          <mxGeometry x="395" y="245" width="50" height="50" as="geometry" />
        </mxCell>
        <mxCell id="R7s6ADU_f5bLhMyLiWHX-11" style="edgeStyle=orthogonalEdgeStyle;rounded=0;orthogonalLoop=1;jettySize=auto;html=1;exitX=0.5;exitY=1;exitDx=0;exitDy=0;entryX=0;entryY=0.5;entryDx=0;entryDy=0;" parent="1" source="R7s6ADU_f5bLhMyLiWHX-1" target="R7s6ADU_f5bLhMyLiWHX-5" edge="1">
          <mxGeometry relative="1" as="geometry" />
        </mxCell>
        <mxCell id="R7s6ADU_f5bLhMyLiWHX-12" style="edgeStyle=orthogonalEdgeStyle;rounded=0;orthogonalLoop=1;jettySize=auto;html=1;exitX=0.5;exitY=0;exitDx=0;exitDy=0;entryX=0;entryY=0.5;entryDx=0;entryDy=0;" parent="1" source="R7s6ADU_f5bLhMyLiWHX-1" target="R7s6ADU_f5bLhMyLiWHX-2" edge="1">
          <mxGeometry relative="1" as="geometry" />
        </mxCell>
        <mxCell id="R7s6ADU_f5bLhMyLiWHX-1" value="customer A" style="whiteSpace=wrap;html=1;aspect=fixed;" parent="1" vertex="1">
          <mxGeometry x="192.5" y="810" width="50" height="50" as="geometry" />
        </mxCell>
        <mxCell id="R7s6ADU_f5bLhMyLiWHX-17" style="edgeStyle=orthogonalEdgeStyle;rounded=0;orthogonalLoop=1;jettySize=auto;html=1;exitX=1;exitY=0.5;exitDx=0;exitDy=0;entryX=0;entryY=0.5;entryDx=0;entryDy=0;" parent="1" source="R7s6ADU_f5bLhMyLiWHX-2" target="R7s6ADU_f5bLhMyLiWHX-4" edge="1">
          <mxGeometry relative="1" as="geometry" />
        </mxCell>
        <mxCell id="R7s6ADU_f5bLhMyLiWHX-18" style="edgeStyle=orthogonalEdgeStyle;rounded=0;orthogonalLoop=1;jettySize=auto;html=1;exitX=1;exitY=0.5;exitDx=0;exitDy=0;entryX=0;entryY=0.5;entryDx=0;entryDy=0;" parent="1" source="R7s6ADU_f5bLhMyLiWHX-2" target="R7s6ADU_f5bLhMyLiWHX-3" edge="1">
          <mxGeometry relative="1" as="geometry" />
        </mxCell>
        <mxCell id="R7s6ADU_f5bLhMyLiWHX-27" style="edgeStyle=orthogonalEdgeStyle;rounded=0;orthogonalLoop=1;jettySize=auto;html=1;exitX=1;exitY=0.5;exitDx=0;exitDy=0;entryX=0;entryY=0.5;entryDx=0;entryDy=0;" parent="1" source="R7s6ADU_f5bLhMyLiWHX-2" target="R7s6ADU_f5bLhMyLiWHX-23" edge="1">
          <mxGeometry relative="1" as="geometry" />
        </mxCell>
        <mxCell id="R7s6ADU_f5bLhMyLiWHX-2" value="Datasets" style="whiteSpace=wrap;html=1;aspect=fixed;" parent="1" vertex="1">
          <mxGeometry x="302.5" y="730" width="50" height="50" as="geometry" />
        </mxCell>
        <mxCell id="R7s6ADU_f5bLhMyLiWHX-3" value="Dataset C" style="whiteSpace=wrap;html=1;aspect=fixed;" parent="1" vertex="1">
          <mxGeometry x="445" y="570" width="50" height="50" as="geometry" />
        </mxCell>
        <mxCell id="R7s6ADU_f5bLhMyLiWHX-4" value="Dataset B" style="whiteSpace=wrap;html=1;aspect=fixed;" parent="1" vertex="1">
          <mxGeometry x="445" y="670" width="50" height="50" as="geometry" />
        </mxCell>
        <mxCell id="R7s6ADU_f5bLhMyLiWHX-10" style="edgeStyle=orthogonalEdgeStyle;rounded=0;orthogonalLoop=1;jettySize=auto;html=1;exitX=1;exitY=0.5;exitDx=0;exitDy=0;entryX=0.5;entryY=0;entryDx=0;entryDy=0;" parent="1" source="R7s6ADU_f5bLhMyLiWHX-5" target="R7s6ADU_f5bLhMyLiWHX-8" edge="1">
          <mxGeometry relative="1" as="geometry" />
        </mxCell>
        <mxCell id="R7s6ADU_f5bLhMyLiWHX-19" style="edgeStyle=orthogonalEdgeStyle;rounded=0;orthogonalLoop=1;jettySize=auto;html=1;exitX=1;exitY=0.5;exitDx=0;exitDy=0;entryX=0.5;entryY=0;entryDx=0;entryDy=0;" parent="1" source="R7s6ADU_f5bLhMyLiWHX-5" target="R7s6ADU_f5bLhMyLiWHX-6" edge="1">
          <mxGeometry relative="1" as="geometry" />
        </mxCell>
        <mxCell id="R7s6ADU_f5bLhMyLiWHX-5" value="Models" style="whiteSpace=wrap;html=1;aspect=fixed;" parent="1" vertex="1">
          <mxGeometry x="302.5" y="870" width="50" height="50" as="geometry" />
        </mxCell>
        <mxCell id="R7s6ADU_f5bLhMyLiWHX-6" value="Model A" style="whiteSpace=wrap;html=1;aspect=fixed;" parent="1" vertex="1">
          <mxGeometry x="417.5" y="920" width="50" height="50" as="geometry" />
        </mxCell>
        <mxCell id="R7s6ADU_f5bLhMyLiWHX-8" value="Model B" style="whiteSpace=wrap;html=1;aspect=fixed;" parent="1" vertex="1">
          <mxGeometry x="542.5" y="920" width="50" height="50" as="geometry" />
        </mxCell>
        <mxCell id="R7s6ADU_f5bLhMyLiWHX-20" style="edgeStyle=orthogonalEdgeStyle;rounded=0;orthogonalLoop=1;jettySize=auto;html=1;exitX=1;exitY=0.5;exitDx=0;exitDy=0;entryX=0;entryY=0.5;entryDx=0;entryDy=0;" parent="1" source="R7s6ADU_f5bLhMyLiWHX-23" target="R7s6ADU_f5bLhMyLiWHX-26" edge="1">
          <mxGeometry relative="1" as="geometry" />
        </mxCell>
        <mxCell id="R7s6ADU_f5bLhMyLiWHX-21" style="edgeStyle=orthogonalEdgeStyle;rounded=0;orthogonalLoop=1;jettySize=auto;html=1;exitX=1;exitY=0.5;exitDx=0;exitDy=0;entryX=0;entryY=0.5;entryDx=0;entryDy=0;" parent="1" source="R7s6ADU_f5bLhMyLiWHX-23" target="R7s6ADU_f5bLhMyLiWHX-25" edge="1">
          <mxGeometry relative="1" as="geometry" />
        </mxCell>
        <mxCell id="R7s6ADU_f5bLhMyLiWHX-22" style="edgeStyle=orthogonalEdgeStyle;rounded=0;orthogonalLoop=1;jettySize=auto;html=1;exitX=1;exitY=0.5;exitDx=0;exitDy=0;entryX=0;entryY=0.5;entryDx=0;entryDy=0;" parent="1" source="R7s6ADU_f5bLhMyLiWHX-23" target="R7s6ADU_f5bLhMyLiWHX-24" edge="1">
          <mxGeometry relative="1" as="geometry" />
        </mxCell>
        <mxCell id="R7s6ADU_f5bLhMyLiWHX-28" value="" style="edgeStyle=orthogonalEdgeStyle;rounded=0;orthogonalLoop=1;jettySize=auto;html=1;" parent="1" source="R7s6ADU_f5bLhMyLiWHX-23" target="R7s6ADU_f5bLhMyLiWHX-4" edge="1">
          <mxGeometry relative="1" as="geometry" />
        </mxCell>
        <mxCell id="R7s6ADU_f5bLhMyLiWHX-23" value="Dataset A" style="whiteSpace=wrap;html=1;aspect=fixed;" parent="1" vertex="1">
          <mxGeometry x="445" y="750" width="50" height="50" as="geometry" />
        </mxCell>
        <mxCell id="R7s6ADU_f5bLhMyLiWHX-24" value="V3" style="whiteSpace=wrap;html=1;aspect=fixed;" parent="1" vertex="1">
          <mxGeometry x="587.5" y="590" width="50" height="50" as="geometry" />
        </mxCell>
        <mxCell id="R7s6ADU_f5bLhMyLiWHX-25" value="V2" style="whiteSpace=wrap;html=1;aspect=fixed;" parent="1" vertex="1">
          <mxGeometry x="587.5" y="690" width="50" height="50" as="geometry" />
        </mxCell>
        <mxCell id="R7s6ADU_f5bLhMyLiWHX-26" value="V1" style="whiteSpace=wrap;html=1;aspect=fixed;" parent="1" vertex="1">
          <mxGeometry x="585" y="790" width="50" height="50" as="geometry" />
        </mxCell>
        <mxCell id="R7s6ADU_f5bLhMyLiWHX-29" value="Customer Data Folder Structure" style="text;html=1;align=center;verticalAlign=middle;resizable=0;points=[];autosize=1;strokeColor=none;fillColor=none;fontSize=25;" parent="1" vertex="1">
          <mxGeometry x="212.5" y="440" width="380" height="40" as="geometry" />
        </mxCell>
        <mxCell id="R7s6ADU_f5bLhMyLiWHX-32" value="&lt;font style=&quot;font-size: 20px;&quot;&gt;Folder structure&amp;nbsp;&lt;/font&gt;" style="text;html=1;align=center;verticalAlign=middle;resizable=0;points=[];autosize=1;strokeColor=none;fillColor=none;" parent="1" vertex="1">
          <mxGeometry x="110" y="-305" width="170" height="40" as="geometry" />
        </mxCell>
        <mxCell id="R7s6ADU_f5bLhMyLiWHX-33" value="&lt;font style=&quot;font-size: 25px;&quot;&gt;ClearML&lt;/font&gt;" style="strokeWidth=2;html=1;shape=mxgraph.flowchart.database;whiteSpace=wrap;" parent="1" vertex="1">
          <mxGeometry x="270" y="-990" width="290" height="110" as="geometry" />
        </mxCell>
        <mxCell id="R7s6ADU_f5bLhMyLiWHX-41" style="edgeStyle=orthogonalEdgeStyle;rounded=0;orthogonalLoop=1;jettySize=auto;html=1;exitX=0.5;exitY=1;exitDx=0;exitDy=0;entryX=0.5;entryY=0;entryDx=0;entryDy=0;" parent="1" source="R7s6ADU_f5bLhMyLiWHX-38" target="R7s6ADU_f5bLhMyLiWHX-39" edge="1">
          <mxGeometry relative="1" as="geometry" />
        </mxCell>
        <mxCell id="R7s6ADU_f5bLhMyLiWHX-42" style="edgeStyle=orthogonalEdgeStyle;rounded=0;orthogonalLoop=1;jettySize=auto;html=1;exitX=0.5;exitY=1;exitDx=0;exitDy=0;entryX=0.5;entryY=0;entryDx=0;entryDy=0;" parent="1" source="R7s6ADU_f5bLhMyLiWHX-38" target="R7s6ADU_f5bLhMyLiWHX-40" edge="1">
          <mxGeometry relative="1" as="geometry" />
        </mxCell>
        <mxCell id="R7s6ADU_f5bLhMyLiWHX-38" value="Datasets&lt;br style=&quot;font-size: 15px;&quot;&gt;" style="rounded=0;whiteSpace=wrap;html=1;fontSize=15;" parent="1" vertex="1">
          <mxGeometry x="327.5" y="-780" width="205" height="70" as="geometry" />
        </mxCell>
        <mxCell id="R7s6ADU_f5bLhMyLiWHX-39" value="Dsal" style="whiteSpace=wrap;html=1;aspect=fixed;fontSize=18;" parent="1" vertex="1">
          <mxGeometry x="222.5" y="-580" width="80" height="80" as="geometry" />
        </mxCell>
        <mxCell id="R7s6ADU_f5bLhMyLiWHX-40" value="&lt;font style=&quot;font-size: 18px;&quot;&gt;Customer A&lt;/font&gt;" style="whiteSpace=wrap;html=1;aspect=fixed;" parent="1" vertex="1">
          <mxGeometry x="542.5" y="-580" width="80" height="80" as="geometry" />
        </mxCell>
        <mxCell id="9AX2ZeY6iPIB4eOh43gV-1" style="edgeStyle=orthogonalEdgeStyle;rounded=0;orthogonalLoop=1;jettySize=auto;html=1;exitX=0.5;exitY=0;exitDx=0;exitDy=0;entryX=0.5;entryY=1;entryDx=0;entryDy=0;entryPerimeter=0;" edge="1" parent="1" source="R7s6ADU_f5bLhMyLiWHX-38" target="R7s6ADU_f5bLhMyLiWHX-33">
          <mxGeometry relative="1" as="geometry" />
        </mxCell>
      </root>
    </mxGraphModel>
  </diagram>
  <diagram id="Gv571TYbFs-9LJ0qLoEi" name="Page-2">
    <mxGraphModel dx="1802" dy="653" grid="1" gridSize="10" guides="1" tooltips="1" connect="1" arrows="1" fold="1" page="1" pageScale="1" pageWidth="850" pageHeight="1100" math="0" shadow="0">
      <root>
        <mxCell id="0" />
        <mxCell id="1" parent="0" />
        <mxCell id="FOI_6BdSIrDe1lYpdD7g-7" style="edgeStyle=orthogonalEdgeStyle;rounded=0;orthogonalLoop=1;jettySize=auto;html=1;exitX=1;exitY=0.5;exitDx=0;exitDy=0;strokeColor=#00CC00;" edge="1" parent="1" source="FOI_6BdSIrDe1lYpdD7g-4" target="FOI_6BdSIrDe1lYpdD7g-5">
          <mxGeometry relative="1" as="geometry" />
        </mxCell>
        <mxCell id="FOI_6BdSIrDe1lYpdD7g-10" style="edgeStyle=orthogonalEdgeStyle;rounded=0;orthogonalLoop=1;jettySize=auto;html=1;exitX=0.5;exitY=1;exitDx=0;exitDy=0;entryX=0.5;entryY=1;entryDx=0;entryDy=0;strokeColor=#00CC00;" edge="1" parent="1" source="FOI_6BdSIrDe1lYpdD7g-4" target="FOI_6BdSIrDe1lYpdD7g-6">
          <mxGeometry relative="1" as="geometry" />
        </mxCell>
        <mxCell id="FOI_6BdSIrDe1lYpdD7g-4" value="images" style="whiteSpace=wrap;html=1;aspect=fixed;fillColor=#00CC00;" vertex="1" parent="1">
          <mxGeometry x="30" y="230" width="50" height="50" as="geometry" />
        </mxCell>
        <mxCell id="FOI_6BdSIrDe1lYpdD7g-8" style="edgeStyle=orthogonalEdgeStyle;rounded=0;orthogonalLoop=1;jettySize=auto;html=1;exitX=1;exitY=0.5;exitDx=0;exitDy=0;strokeColor=#CC0066;" edge="1" parent="1" source="FOI_6BdSIrDe1lYpdD7g-5" target="FOI_6BdSIrDe1lYpdD7g-6">
          <mxGeometry relative="1" as="geometry" />
        </mxCell>
        <mxCell id="FOI_6BdSIrDe1lYpdD7g-5" value="labels" style="whiteSpace=wrap;html=1;aspect=fixed;fillColor=#CC0066;" vertex="1" parent="1">
          <mxGeometry x="140" y="230" width="50" height="50" as="geometry" />
        </mxCell>
        <mxCell id="FOI_6BdSIrDe1lYpdD7g-6" value="total" style="whiteSpace=wrap;html=1;aspect=fixed;" vertex="1" parent="1">
          <mxGeometry x="250" y="230" width="50" height="50" as="geometry" />
        </mxCell>
        <mxCell id="FOI_6BdSIrDe1lYpdD7g-19" value="" style="endArrow=none;html=1;rounded=0;" edge="1" parent="1">
          <mxGeometry width="50" height="50" relative="1" as="geometry">
            <mxPoint x="10" y="200" as="sourcePoint" />
            <mxPoint x="320" y="200" as="targetPoint" />
          </mxGeometry>
        </mxCell>
        <mxCell id="FOI_6BdSIrDe1lYpdD7g-20" value="" style="endArrow=none;html=1;rounded=0;" edge="1" parent="1">
          <mxGeometry width="50" height="50" relative="1" as="geometry">
            <mxPoint x="10" y="320" as="sourcePoint" />
            <mxPoint x="320" y="320" as="targetPoint" />
          </mxGeometry>
        </mxCell>
        <mxCell id="FOI_6BdSIrDe1lYpdD7g-21" value="" style="endArrow=none;html=1;rounded=0;" edge="1" parent="1">
          <mxGeometry width="50" height="50" relative="1" as="geometry">
            <mxPoint x="10" y="320" as="sourcePoint" />
            <mxPoint x="10" y="200" as="targetPoint" />
          </mxGeometry>
        </mxCell>
        <mxCell id="FOI_6BdSIrDe1lYpdD7g-22" value="" style="endArrow=none;html=1;rounded=0;" edge="1" parent="1">
          <mxGeometry width="50" height="50" relative="1" as="geometry">
            <mxPoint x="320" y="320" as="sourcePoint" />
            <mxPoint x="320" y="200" as="targetPoint" />
          </mxGeometry>
        </mxCell>
        <mxCell id="FOI_6BdSIrDe1lYpdD7g-23" style="edgeStyle=orthogonalEdgeStyle;rounded=0;orthogonalLoop=1;jettySize=auto;html=1;exitX=1;exitY=0.5;exitDx=0;exitDy=0;strokeColor=#00CC00;" edge="1" parent="1" source="FOI_6BdSIrDe1lYpdD7g-25" target="FOI_6BdSIrDe1lYpdD7g-27">
          <mxGeometry relative="1" as="geometry" />
        </mxCell>
        <mxCell id="FOI_6BdSIrDe1lYpdD7g-24" style="edgeStyle=orthogonalEdgeStyle;rounded=0;orthogonalLoop=1;jettySize=auto;html=1;exitX=0.5;exitY=1;exitDx=0;exitDy=0;entryX=0.5;entryY=1;entryDx=0;entryDy=0;strokeColor=#00CC00;" edge="1" parent="1" source="FOI_6BdSIrDe1lYpdD7g-25" target="FOI_6BdSIrDe1lYpdD7g-28">
          <mxGeometry relative="1" as="geometry" />
        </mxCell>
        <mxCell id="FOI_6BdSIrDe1lYpdD7g-25" value="images" style="whiteSpace=wrap;html=1;aspect=fixed;fillColor=#00CC00;" vertex="1" parent="1">
          <mxGeometry x="410" y="230" width="50" height="50" as="geometry" />
        </mxCell>
        <mxCell id="FOI_6BdSIrDe1lYpdD7g-26" style="edgeStyle=orthogonalEdgeStyle;rounded=0;orthogonalLoop=1;jettySize=auto;html=1;exitX=1;exitY=0.5;exitDx=0;exitDy=0;strokeColor=#CC0066;" edge="1" parent="1" source="FOI_6BdSIrDe1lYpdD7g-27" target="FOI_6BdSIrDe1lYpdD7g-28">
          <mxGeometry relative="1" as="geometry" />
        </mxCell>
        <mxCell id="FOI_6BdSIrDe1lYpdD7g-27" value="labels" style="whiteSpace=wrap;html=1;aspect=fixed;fillColor=#CC0066;" vertex="1" parent="1">
          <mxGeometry x="520" y="230" width="50" height="50" as="geometry" />
        </mxCell>
        <mxCell id="FOI_6BdSIrDe1lYpdD7g-28" value="total" style="whiteSpace=wrap;html=1;aspect=fixed;" vertex="1" parent="1">
          <mxGeometry x="630" y="230" width="50" height="50" as="geometry" />
        </mxCell>
        <mxCell id="FOI_6BdSIrDe1lYpdD7g-29" value="" style="endArrow=none;html=1;rounded=0;" edge="1" parent="1">
          <mxGeometry width="50" height="50" relative="1" as="geometry">
            <mxPoint x="390" y="200" as="sourcePoint" />
            <mxPoint x="700" y="200" as="targetPoint" />
          </mxGeometry>
        </mxCell>
        <mxCell id="FOI_6BdSIrDe1lYpdD7g-30" value="" style="endArrow=none;html=1;rounded=0;" edge="1" parent="1">
          <mxGeometry width="50" height="50" relative="1" as="geometry">
            <mxPoint x="390" y="320" as="sourcePoint" />
            <mxPoint x="700" y="320" as="targetPoint" />
          </mxGeometry>
        </mxCell>
        <mxCell id="FOI_6BdSIrDe1lYpdD7g-31" value="" style="endArrow=none;html=1;rounded=0;" edge="1" parent="1">
          <mxGeometry width="50" height="50" relative="1" as="geometry">
            <mxPoint x="390" y="320" as="sourcePoint" />
            <mxPoint x="390" y="200" as="targetPoint" />
          </mxGeometry>
        </mxCell>
        <mxCell id="FOI_6BdSIrDe1lYpdD7g-32" value="" style="endArrow=none;html=1;rounded=0;" edge="1" parent="1">
          <mxGeometry width="50" height="50" relative="1" as="geometry">
            <mxPoint x="700" y="320" as="sourcePoint" />
            <mxPoint x="700" y="200" as="targetPoint" />
          </mxGeometry>
        </mxCell>
        <mxCell id="FOI_6BdSIrDe1lYpdD7g-64" style="edgeStyle=orthogonalEdgeStyle;rounded=0;orthogonalLoop=1;jettySize=auto;html=1;exitX=0.5;exitY=1;exitDx=0;exitDy=0;entryX=0.75;entryY=1;entryDx=0;entryDy=0;strokeColor=#00CC00;" edge="1" parent="1" source="FOI_6BdSIrDe1lYpdD7g-33" target="FOI_6BdSIrDe1lYpdD7g-35">
          <mxGeometry relative="1" as="geometry" />
        </mxCell>
        <mxCell id="MVAsrBTKZjidczAd1j6M-13" style="edgeStyle=orthogonalEdgeStyle;rounded=0;orthogonalLoop=1;jettySize=auto;html=1;exitX=1;exitY=0.5;exitDx=0;exitDy=0;entryX=0;entryY=0.5;entryDx=0;entryDy=0;strokeColor=#00CC00;" edge="1" parent="1" source="FOI_6BdSIrDe1lYpdD7g-33" target="FOI_6BdSIrDe1lYpdD7g-34">
          <mxGeometry relative="1" as="geometry" />
        </mxCell>
        <mxCell id="FOI_6BdSIrDe1lYpdD7g-33" value="images" style="whiteSpace=wrap;html=1;aspect=fixed;fillColor=#00CC00;" vertex="1" parent="1">
          <mxGeometry x="210" y="480" width="50" height="50" as="geometry" />
        </mxCell>
        <mxCell id="FOI_6BdSIrDe1lYpdD7g-65" style="edgeStyle=orthogonalEdgeStyle;rounded=0;orthogonalLoop=1;jettySize=auto;html=1;exitX=1;exitY=0.5;exitDx=0;exitDy=0;entryX=0;entryY=0.5;entryDx=0;entryDy=0;strokeColor=#CC0066;" edge="1" parent="1" source="FOI_6BdSIrDe1lYpdD7g-34" target="FOI_6BdSIrDe1lYpdD7g-35">
          <mxGeometry relative="1" as="geometry" />
        </mxCell>
        <mxCell id="FOI_6BdSIrDe1lYpdD7g-34" value="labels" style="whiteSpace=wrap;html=1;aspect=fixed;fillColor=#CC0066;" vertex="1" parent="1">
          <mxGeometry x="310" y="480" width="50" height="50" as="geometry" />
        </mxCell>
        <mxCell id="FOI_6BdSIrDe1lYpdD7g-35" value="total" style="whiteSpace=wrap;html=1;aspect=fixed;" vertex="1" parent="1">
          <mxGeometry x="410" y="480" width="50" height="50" as="geometry" />
        </mxCell>
        <mxCell id="FOI_6BdSIrDe1lYpdD7g-51" value="" style="endArrow=classic;html=1;rounded=0;exitX=0.5;exitY=1;exitDx=0;exitDy=0;entryX=0;entryY=0;entryDx=0;entryDy=0;strokeColor=#00CC00;" edge="1" parent="1" source="FOI_6BdSIrDe1lYpdD7g-4" target="FOI_6BdSIrDe1lYpdD7g-33">
          <mxGeometry relative="1" as="geometry">
            <mxPoint x="30" y="280" as="sourcePoint" />
            <mxPoint x="210" y="450" as="targetPoint" />
            <Array as="points">
              <mxPoint x="55" y="380" />
              <mxPoint x="210" y="380" />
              <mxPoint x="210" y="400" />
            </Array>
          </mxGeometry>
        </mxCell>
        <mxCell id="FOI_6BdSIrDe1lYpdD7g-54" value="" style="endArrow=classic;html=1;rounded=0;exitX=0.5;exitY=1;exitDx=0;exitDy=0;entryX=1;entryY=0;entryDx=0;entryDy=0;strokeColor=#00CC00;" edge="1" parent="1" source="FOI_6BdSIrDe1lYpdD7g-25" target="FOI_6BdSIrDe1lYpdD7g-33">
          <mxGeometry relative="1" as="geometry">
            <mxPoint x="450" y="380" as="sourcePoint" />
            <mxPoint x="360" y="430" as="targetPoint" />
            <Array as="points">
              <mxPoint x="435" y="380" />
              <mxPoint x="260" y="380" />
              <mxPoint x="260" y="500" />
              <mxPoint x="260" y="440" />
            </Array>
          </mxGeometry>
        </mxCell>
        <mxCell id="FOI_6BdSIrDe1lYpdD7g-57" value="" style="endArrow=classic;html=1;rounded=0;exitX=0.5;exitY=1;exitDx=0;exitDy=0;entryX=0.5;entryY=0;entryDx=0;entryDy=0;strokeColor=#CC0066;" edge="1" parent="1" source="FOI_6BdSIrDe1lYpdD7g-27" target="FOI_6BdSIrDe1lYpdD7g-34">
          <mxGeometry relative="1" as="geometry">
            <mxPoint x="540" y="380" as="sourcePoint" />
            <mxPoint x="320" y="410" as="targetPoint" />
            <Array as="points">
              <mxPoint x="545" y="400" />
              <mxPoint x="335" y="400" />
            </Array>
          </mxGeometry>
        </mxCell>
        <mxCell id="FOI_6BdSIrDe1lYpdD7g-60" value="" style="endArrow=classic;html=1;rounded=0;exitX=0.5;exitY=1;exitDx=0;exitDy=0;entryX=0.5;entryY=0;entryDx=0;entryDy=0;strokeColor=#CC0066;" edge="1" parent="1" source="FOI_6BdSIrDe1lYpdD7g-5" target="FOI_6BdSIrDe1lYpdD7g-34">
          <mxGeometry relative="1" as="geometry">
            <mxPoint x="255" y="360" as="sourcePoint" />
            <mxPoint x="490" y="370" as="targetPoint" />
            <Array as="points">
              <mxPoint x="165" y="360" />
              <mxPoint x="335" y="360" />
            </Array>
          </mxGeometry>
        </mxCell>
        <mxCell id="FOI_6BdSIrDe1lYpdD7g-68" value="" style="endArrow=none;html=1;rounded=0;" edge="1" parent="1">
          <mxGeometry width="50" height="50" relative="1" as="geometry">
            <mxPoint x="190" y="570" as="sourcePoint" />
            <mxPoint x="480" y="570" as="targetPoint" />
          </mxGeometry>
        </mxCell>
        <mxCell id="FOI_6BdSIrDe1lYpdD7g-70" value="" style="endArrow=none;html=1;rounded=0;" edge="1" parent="1">
          <mxGeometry width="50" height="50" relative="1" as="geometry">
            <mxPoint x="190" y="570" as="sourcePoint" />
            <mxPoint x="190" y="460" as="targetPoint" />
          </mxGeometry>
        </mxCell>
        <mxCell id="FOI_6BdSIrDe1lYpdD7g-71" value="" style="endArrow=none;html=1;rounded=0;" edge="1" parent="1">
          <mxGeometry width="50" height="50" relative="1" as="geometry">
            <mxPoint x="190" y="460" as="sourcePoint" />
            <mxPoint x="480" y="460" as="targetPoint" />
          </mxGeometry>
        </mxCell>
        <mxCell id="FOI_6BdSIrDe1lYpdD7g-72" value="" style="endArrow=none;html=1;rounded=0;" edge="1" parent="1">
          <mxGeometry width="50" height="50" relative="1" as="geometry">
            <mxPoint x="480" y="460" as="sourcePoint" />
            <mxPoint x="480" y="570" as="targetPoint" />
          </mxGeometry>
        </mxCell>
        <mxCell id="FOI_6BdSIrDe1lYpdD7g-73" value="dsal/labelling&lt;br&gt;&lt;br&gt;daily data" style="rounded=0;whiteSpace=wrap;html=1;" vertex="1" parent="1">
          <mxGeometry x="170" y="100" width="355" height="60" as="geometry" />
        </mxCell>
        <mxCell id="FOI_6BdSIrDe1lYpdD7g-97" style="edgeStyle=orthogonalEdgeStyle;rounded=0;orthogonalLoop=1;jettySize=auto;html=1;exitX=1;exitY=0.5;exitDx=0;exitDy=0;strokeColor=#00CC00;" edge="1" parent="1" source="FOI_6BdSIrDe1lYpdD7g-99" target="FOI_6BdSIrDe1lYpdD7g-101">
          <mxGeometry relative="1" as="geometry" />
        </mxCell>
        <mxCell id="FOI_6BdSIrDe1lYpdD7g-98" style="edgeStyle=orthogonalEdgeStyle;rounded=0;orthogonalLoop=1;jettySize=auto;html=1;exitX=0.5;exitY=1;exitDx=0;exitDy=0;entryX=0.5;entryY=1;entryDx=0;entryDy=0;strokeColor=#00CC00;" edge="1" parent="1" source="FOI_6BdSIrDe1lYpdD7g-99" target="FOI_6BdSIrDe1lYpdD7g-102">
          <mxGeometry relative="1" as="geometry" />
        </mxCell>
        <mxCell id="FOI_6BdSIrDe1lYpdD7g-99" value="images" style="whiteSpace=wrap;html=1;aspect=fixed;fillColor=#00CC00;" vertex="1" parent="1">
          <mxGeometry x="545" y="490" width="50" height="50" as="geometry" />
        </mxCell>
        <mxCell id="FOI_6BdSIrDe1lYpdD7g-100" style="edgeStyle=orthogonalEdgeStyle;rounded=0;orthogonalLoop=1;jettySize=auto;html=1;exitX=1;exitY=0.5;exitDx=0;exitDy=0;strokeColor=#CC0066;" edge="1" parent="1" source="FOI_6BdSIrDe1lYpdD7g-101" target="FOI_6BdSIrDe1lYpdD7g-102">
          <mxGeometry relative="1" as="geometry" />
        </mxCell>
        <mxCell id="FOI_6BdSIrDe1lYpdD7g-101" value="labels" style="whiteSpace=wrap;html=1;aspect=fixed;fillColor=#CC0066;" vertex="1" parent="1">
          <mxGeometry x="655" y="490" width="50" height="50" as="geometry" />
        </mxCell>
        <mxCell id="FOI_6BdSIrDe1lYpdD7g-102" value="total" style="whiteSpace=wrap;html=1;aspect=fixed;" vertex="1" parent="1">
          <mxGeometry x="765" y="490" width="50" height="50" as="geometry" />
        </mxCell>
        <mxCell id="FOI_6BdSIrDe1lYpdD7g-103" value="" style="endArrow=none;html=1;rounded=0;" edge="1" parent="1">
          <mxGeometry width="50" height="50" relative="1" as="geometry">
            <mxPoint x="525" y="460" as="sourcePoint" />
            <mxPoint x="835" y="460" as="targetPoint" />
          </mxGeometry>
        </mxCell>
        <mxCell id="FOI_6BdSIrDe1lYpdD7g-104" value="" style="endArrow=none;html=1;rounded=0;" edge="1" parent="1">
          <mxGeometry width="50" height="50" relative="1" as="geometry">
            <mxPoint x="525" y="580" as="sourcePoint" />
            <mxPoint x="835" y="580" as="targetPoint" />
          </mxGeometry>
        </mxCell>
        <mxCell id="FOI_6BdSIrDe1lYpdD7g-105" value="" style="endArrow=none;html=1;rounded=0;" edge="1" parent="1">
          <mxGeometry width="50" height="50" relative="1" as="geometry">
            <mxPoint x="525" y="580" as="sourcePoint" />
            <mxPoint x="525" y="460" as="targetPoint" />
          </mxGeometry>
        </mxCell>
        <mxCell id="FOI_6BdSIrDe1lYpdD7g-106" value="" style="endArrow=none;html=1;rounded=0;" edge="1" parent="1">
          <mxGeometry width="50" height="50" relative="1" as="geometry">
            <mxPoint x="835" y="580" as="sourcePoint" />
            <mxPoint x="835" y="460" as="targetPoint" />
          </mxGeometry>
        </mxCell>
        <mxCell id="FOI_6BdSIrDe1lYpdD7g-107" style="edgeStyle=orthogonalEdgeStyle;rounded=0;orthogonalLoop=1;jettySize=auto;html=1;exitX=0.5;exitY=1;exitDx=0;exitDy=0;entryX=0.75;entryY=1;entryDx=0;entryDy=0;strokeColor=#00CC00;" edge="1" parent="1" source="FOI_6BdSIrDe1lYpdD7g-108" target="FOI_6BdSIrDe1lYpdD7g-111">
          <mxGeometry relative="1" as="geometry" />
        </mxCell>
        <mxCell id="MVAsrBTKZjidczAd1j6M-14" style="edgeStyle=orthogonalEdgeStyle;rounded=0;orthogonalLoop=1;jettySize=auto;html=1;exitX=1;exitY=0.5;exitDx=0;exitDy=0;entryX=0;entryY=0.5;entryDx=0;entryDy=0;strokeColor=#00CC00;" edge="1" parent="1" source="FOI_6BdSIrDe1lYpdD7g-108" target="FOI_6BdSIrDe1lYpdD7g-110">
          <mxGeometry relative="1" as="geometry" />
        </mxCell>
        <mxCell id="FOI_6BdSIrDe1lYpdD7g-108" value="images" style="whiteSpace=wrap;html=1;aspect=fixed;fillColor=#00CC00;" vertex="1" parent="1">
          <mxGeometry x="345" y="740" width="50" height="50" as="geometry" />
        </mxCell>
        <mxCell id="FOI_6BdSIrDe1lYpdD7g-109" style="edgeStyle=orthogonalEdgeStyle;rounded=0;orthogonalLoop=1;jettySize=auto;html=1;exitX=1;exitY=0.5;exitDx=0;exitDy=0;entryX=0;entryY=0.5;entryDx=0;entryDy=0;strokeColor=#CC0066;" edge="1" parent="1" source="FOI_6BdSIrDe1lYpdD7g-110" target="FOI_6BdSIrDe1lYpdD7g-111">
          <mxGeometry relative="1" as="geometry" />
        </mxCell>
        <mxCell id="FOI_6BdSIrDe1lYpdD7g-110" value="labels" style="whiteSpace=wrap;html=1;aspect=fixed;fillColor=#CC0066;" vertex="1" parent="1">
          <mxGeometry x="445" y="740" width="50" height="50" as="geometry" />
        </mxCell>
        <mxCell id="FOI_6BdSIrDe1lYpdD7g-111" value="total" style="whiteSpace=wrap;html=1;aspect=fixed;" vertex="1" parent="1">
          <mxGeometry x="545" y="740" width="50" height="50" as="geometry" />
        </mxCell>
        <mxCell id="FOI_6BdSIrDe1lYpdD7g-112" value="" style="endArrow=classic;html=1;rounded=0;exitX=0.5;exitY=1;exitDx=0;exitDy=0;entryX=0;entryY=0;entryDx=0;entryDy=0;strokeColor=#00CC00;" edge="1" parent="1" source="FOI_6BdSIrDe1lYpdD7g-33" target="FOI_6BdSIrDe1lYpdD7g-108">
          <mxGeometry relative="1" as="geometry">
            <mxPoint x="190" y="540" as="sourcePoint" />
            <mxPoint x="345" y="710" as="targetPoint" />
            <Array as="points">
              <mxPoint x="235" y="640" />
              <mxPoint x="345" y="640" />
              <mxPoint x="345" y="660" />
            </Array>
          </mxGeometry>
        </mxCell>
        <mxCell id="FOI_6BdSIrDe1lYpdD7g-115" value="" style="endArrow=classic;html=1;rounded=0;exitX=0.5;exitY=1;exitDx=0;exitDy=0;entryX=1;entryY=0;entryDx=0;entryDy=0;strokeColor=#00CC00;" edge="1" parent="1" source="FOI_6BdSIrDe1lYpdD7g-99" target="FOI_6BdSIrDe1lYpdD7g-108">
          <mxGeometry relative="1" as="geometry">
            <mxPoint x="585" y="640" as="sourcePoint" />
            <mxPoint x="495" y="690" as="targetPoint" />
            <Array as="points">
              <mxPoint x="570" y="640" />
              <mxPoint x="395" y="640" />
              <mxPoint x="395" y="760" />
              <mxPoint x="395" y="700" />
            </Array>
          </mxGeometry>
        </mxCell>
        <mxCell id="FOI_6BdSIrDe1lYpdD7g-118" value="" style="endArrow=classic;html=1;rounded=0;exitX=0.5;exitY=1;exitDx=0;exitDy=0;entryX=0.5;entryY=0;entryDx=0;entryDy=0;strokeColor=#CC0066;" edge="1" parent="1" source="FOI_6BdSIrDe1lYpdD7g-101" target="FOI_6BdSIrDe1lYpdD7g-110">
          <mxGeometry relative="1" as="geometry">
            <mxPoint x="675" y="640" as="sourcePoint" />
            <mxPoint x="455" y="670" as="targetPoint" />
            <Array as="points">
              <mxPoint x="680" y="660" />
              <mxPoint x="470" y="660" />
            </Array>
          </mxGeometry>
        </mxCell>
        <mxCell id="FOI_6BdSIrDe1lYpdD7g-121" value="" style="endArrow=classic;html=1;rounded=0;exitX=0.5;exitY=1;exitDx=0;exitDy=0;entryX=0.5;entryY=0;entryDx=0;entryDy=0;strokeColor=#CC0066;" edge="1" parent="1" source="FOI_6BdSIrDe1lYpdD7g-34" target="FOI_6BdSIrDe1lYpdD7g-110">
          <mxGeometry relative="1" as="geometry">
            <mxPoint x="300" y="540" as="sourcePoint" />
            <mxPoint x="625" y="630" as="targetPoint" />
            <Array as="points">
              <mxPoint x="335" y="620" />
              <mxPoint x="470" y="620" />
            </Array>
          </mxGeometry>
        </mxCell>
        <mxCell id="FOI_6BdSIrDe1lYpdD7g-124" value="" style="endArrow=none;html=1;rounded=0;" edge="1" parent="1">
          <mxGeometry width="50" height="50" relative="1" as="geometry">
            <mxPoint x="325" y="830" as="sourcePoint" />
            <mxPoint x="615" y="830" as="targetPoint" />
          </mxGeometry>
        </mxCell>
        <mxCell id="FOI_6BdSIrDe1lYpdD7g-125" value="" style="endArrow=none;html=1;rounded=0;" edge="1" parent="1">
          <mxGeometry width="50" height="50" relative="1" as="geometry">
            <mxPoint x="325" y="830" as="sourcePoint" />
            <mxPoint x="325" y="720" as="targetPoint" />
          </mxGeometry>
        </mxCell>
        <mxCell id="FOI_6BdSIrDe1lYpdD7g-126" value="" style="endArrow=none;html=1;rounded=0;" edge="1" parent="1">
          <mxGeometry width="50" height="50" relative="1" as="geometry">
            <mxPoint x="325" y="720" as="sourcePoint" />
            <mxPoint x="615" y="720" as="targetPoint" />
          </mxGeometry>
        </mxCell>
        <mxCell id="FOI_6BdSIrDe1lYpdD7g-127" value="" style="endArrow=none;html=1;rounded=0;" edge="1" parent="1">
          <mxGeometry width="50" height="50" relative="1" as="geometry">
            <mxPoint x="615" y="720" as="sourcePoint" />
            <mxPoint x="615" y="830" as="targetPoint" />
          </mxGeometry>
        </mxCell>
        <mxCell id="FOI_6BdSIrDe1lYpdD7g-128" value="" style="endArrow=classic;startArrow=classic;html=1;rounded=0;" edge="1" parent="1">
          <mxGeometry width="50" height="50" relative="1" as="geometry">
            <mxPoint x="680" y="460" as="sourcePoint" />
            <mxPoint x="760" y="200" as="targetPoint" />
            <Array as="points">
              <mxPoint x="680" y="360" />
              <mxPoint x="760" y="360" />
            </Array>
          </mxGeometry>
        </mxCell>
        <mxCell id="MVAsrBTKZjidczAd1j6M-1" value="Day-1" style="text;html=1;align=center;verticalAlign=middle;resizable=0;points=[];autosize=1;strokeColor=none;fillColor=none;fontColor=#FF0000;" vertex="1" parent="1">
          <mxGeometry x="80" y="198" width="60" height="30" as="geometry" />
        </mxCell>
        <mxCell id="MVAsrBTKZjidczAd1j6M-2" value="Day-2&lt;br&gt;" style="text;html=1;align=center;verticalAlign=middle;resizable=0;points=[];autosize=1;strokeColor=none;fillColor=none;fontColor=#FF0000;" vertex="1" parent="1">
          <mxGeometry x="430" y="198" width="60" height="30" as="geometry" />
        </mxCell>
        <mxCell id="MVAsrBTKZjidczAd1j6M-4" value="week-1&lt;br&gt;" style="text;html=1;align=center;verticalAlign=middle;resizable=0;points=[];autosize=1;strokeColor=none;fillColor=none;fontColor=#FF0000;" vertex="1" parent="1">
          <mxGeometry x="130" y="480" width="60" height="30" as="geometry" />
        </mxCell>
        <mxCell id="MVAsrBTKZjidczAd1j6M-5" value="week-2&lt;br&gt;" style="text;html=1;align=center;verticalAlign=middle;resizable=0;points=[];autosize=1;strokeColor=none;fillColor=none;fontColor=#FF0000;" vertex="1" parent="1">
          <mxGeometry x="560" y="458" width="60" height="30" as="geometry" />
        </mxCell>
        <mxCell id="MVAsrBTKZjidczAd1j6M-6" value="month-1" style="text;html=1;align=center;verticalAlign=middle;resizable=0;points=[];autosize=1;strokeColor=none;fillColor=none;fontColor=#FF0000;" vertex="1" parent="1">
          <mxGeometry x="290" y="830" width="70" height="30" as="geometry" />
        </mxCell>
        <mxCell id="MVAsrBTKZjidczAd1j6M-7" value="" style="endArrow=none;dashed=1;html=1;dashPattern=1 3;strokeWidth=5;rounded=0;fontColor=#FF0000;strokeColor=#FF0000;" edge="1" parent="1">
          <mxGeometry width="50" height="50" relative="1" as="geometry">
            <mxPoint x="-10" y="420" as="sourcePoint" />
            <mxPoint x="850" y="420" as="targetPoint" />
          </mxGeometry>
        </mxCell>
        <mxCell id="MVAsrBTKZjidczAd1j6M-8" value="" style="endArrow=none;dashed=1;html=1;dashPattern=1 3;strokeWidth=5;rounded=0;strokeColor=#FF0000;" edge="1" parent="1">
          <mxGeometry width="50" height="50" relative="1" as="geometry">
            <mxPoint x="-12" y="700" as="sourcePoint" />
            <mxPoint x="849.60009765625" y="700" as="targetPoint" />
          </mxGeometry>
        </mxCell>
        <mxCell id="MVAsrBTKZjidczAd1j6M-9" value="Month folder" style="text;html=1;align=center;verticalAlign=middle;resizable=0;points=[];autosize=1;strokeColor=none;fillColor=none;fontSize=20;" vertex="1" parent="1">
          <mxGeometry x="-65" y="723" width="130" height="40" as="geometry" />
        </mxCell>
        <mxCell id="MVAsrBTKZjidczAd1j6M-10" value="week folder&lt;br style=&quot;font-size: 20px;&quot;&gt;" style="text;html=1;align=center;verticalAlign=middle;resizable=0;points=[];autosize=1;strokeColor=none;fillColor=none;fontSize=20;" vertex="1" parent="1">
          <mxGeometry x="-75" y="423" width="130" height="40" as="geometry" />
        </mxCell>
        <mxCell id="MVAsrBTKZjidczAd1j6M-11" value="Daily folder&lt;br style=&quot;font-size: 20px;&quot;&gt;" style="text;html=1;align=center;verticalAlign=middle;resizable=0;points=[];autosize=1;strokeColor=none;fillColor=none;fontSize=20;" vertex="1" parent="1">
          <mxGeometry x="-70" y="93" width="120" height="40" as="geometry" />
        </mxCell>
        <mxCell id="MVAsrBTKZjidczAd1j6M-12" value="Days&lt;br&gt;of week-2" style="whiteSpace=wrap;html=1;aspect=fixed;" vertex="1" parent="1">
          <mxGeometry x="735" y="118" width="80" height="80" as="geometry" />
        </mxCell>
      </root>
    </mxGraphModel>
  </diagram>
  <diagram id="i0WOi7nbV1lP_f_3IbYC" name="Page-3">
    <mxGraphModel dx="952" dy="653" grid="1" gridSize="10" guides="1" tooltips="1" connect="1" arrows="1" fold="1" page="1" pageScale="1" pageWidth="850" pageHeight="1100" math="0" shadow="0">
      <root>
        <mxCell id="0" />
        <mxCell id="1" parent="0" />
        <mxCell id="6Cl-wmceqnjq83iHJh8r-1" value="a" style="whiteSpace=wrap;html=1;aspect=fixed;" vertex="1" parent="1">
          <mxGeometry x="93" y="262" width="50" height="50" as="geometry" />
        </mxCell>
        <mxCell id="6Cl-wmceqnjq83iHJh8r-2" value="pc, mobile" style="whiteSpace=wrap;html=1;aspect=fixed;" vertex="1" parent="1">
          <mxGeometry x="149" y="373" width="50" height="50" as="geometry" />
        </mxCell>
        <mxCell id="6Cl-wmceqnjq83iHJh8r-4" value="person" style="whiteSpace=wrap;html=1;aspect=fixed;" vertex="1" parent="1">
          <mxGeometry x="39" y="373" width="50" height="50" as="geometry" />
        </mxCell>
        <mxCell id="6Cl-wmceqnjq83iHJh8r-8" value="" style="strokeWidth=2;html=1;shape=mxgraph.flowchart.annotation_2;align=left;labelPosition=right;pointerEvents=1;rotation=90;" vertex="1" parent="1">
          <mxGeometry x="88" y="288" width="60" height="110" as="geometry" />
        </mxCell>
        <mxCell id="6Cl-wmceqnjq83iHJh8r-10" value="b" style="whiteSpace=wrap;html=1;aspect=fixed;" vertex="1" parent="1">
          <mxGeometry x="293" y="262" width="50" height="50" as="geometry" />
        </mxCell>
        <mxCell id="6Cl-wmceqnjq83iHJh8r-11" value="person, tyres&lt;br&gt;" style="whiteSpace=wrap;html=1;aspect=fixed;" vertex="1" parent="1">
          <mxGeometry x="349" y="373" width="50" height="50" as="geometry" />
        </mxCell>
        <mxCell id="6Cl-wmceqnjq83iHJh8r-12" value="person,pc, mobile" style="whiteSpace=wrap;html=1;aspect=fixed;" vertex="1" parent="1">
          <mxGeometry x="239" y="373" width="50" height="50" as="geometry" />
        </mxCell>
        <mxCell id="6Cl-wmceqnjq83iHJh8r-13" value="" style="strokeWidth=2;html=1;shape=mxgraph.flowchart.annotation_2;align=left;labelPosition=right;pointerEvents=1;rotation=90;" vertex="1" parent="1">
          <mxGeometry x="288" y="288" width="60" height="110" as="geometry" />
        </mxCell>
        <mxCell id="6Cl-wmceqnjq83iHJh8r-14" value="c" style="whiteSpace=wrap;html=1;aspect=fixed;" vertex="1" parent="1">
          <mxGeometry x="493" y="262.5" width="50" height="50" as="geometry" />
        </mxCell>
        <mxCell id="6Cl-wmceqnjq83iHJh8r-15" value="person, mobile&lt;br&gt;" style="whiteSpace=wrap;html=1;aspect=fixed;" vertex="1" parent="1">
          <mxGeometry x="549" y="373.5" width="50" height="50" as="geometry" />
        </mxCell>
        <mxCell id="6Cl-wmceqnjq83iHJh8r-16" value="surgical instruments&lt;br&gt;" style="whiteSpace=wrap;html=1;aspect=fixed;" vertex="1" parent="1">
          <mxGeometry x="439" y="373.5" width="50" height="50" as="geometry" />
        </mxCell>
        <mxCell id="6Cl-wmceqnjq83iHJh8r-17" value="" style="strokeWidth=2;html=1;shape=mxgraph.flowchart.annotation_2;align=left;labelPosition=right;pointerEvents=1;rotation=90;" vertex="1" parent="1">
          <mxGeometry x="488" y="288.5" width="60" height="110" as="geometry" />
        </mxCell>
        <mxCell id="6Cl-wmceqnjq83iHJh8r-18" value="d" style="whiteSpace=wrap;html=1;aspect=fixed;" vertex="1" parent="1">
          <mxGeometry x="693" y="262" width="50" height="50" as="geometry" />
        </mxCell>
        <mxCell id="6Cl-wmceqnjq83iHJh8r-19" value="two wheeler, number_plate&lt;br&gt;" style="whiteSpace=wrap;html=1;aspect=fixed;" vertex="1" parent="1">
          <mxGeometry x="749" y="373" width="50" height="50" as="geometry" />
        </mxCell>
        <mxCell id="6Cl-wmceqnjq83iHJh8r-20" value="four wheeler, number_plate" style="whiteSpace=wrap;html=1;aspect=fixed;" vertex="1" parent="1">
          <mxGeometry x="639" y="373" width="50" height="50" as="geometry" />
        </mxCell>
        <mxCell id="6Cl-wmceqnjq83iHJh8r-21" value="" style="strokeWidth=2;html=1;shape=mxgraph.flowchart.annotation_2;align=left;labelPosition=right;pointerEvents=1;rotation=90;" vertex="1" parent="1">
          <mxGeometry x="688" y="288" width="60" height="110" as="geometry" />
        </mxCell>
        <mxCell id="6Cl-wmceqnjq83iHJh8r-23" value="four wheeler&lt;br&gt;" style="whiteSpace=wrap;html=1;aspect=fixed;fillColor=#0000CC;" vertex="1" parent="1">
          <mxGeometry x="589" y="638" width="50" height="50" as="geometry" />
        </mxCell>
        <mxCell id="6Cl-wmceqnjq83iHJh8r-24" value="tyres&lt;br&gt;" style="whiteSpace=wrap;html=1;aspect=fixed;fillColor=#000000;fontColor=#FFFFFF;" vertex="1" parent="1">
          <mxGeometry x="443" y="638" width="50" height="50" as="geometry" />
        </mxCell>
        <mxCell id="6Cl-wmceqnjq83iHJh8r-26" value="mobile" style="whiteSpace=wrap;html=1;aspect=fixed;fillColor=#00CC00;" vertex="1" parent="1">
          <mxGeometry x="238" y="638" width="50" height="50" as="geometry" />
        </mxCell>
        <mxCell id="6Cl-wmceqnjq83iHJh8r-27" value="person" style="whiteSpace=wrap;html=1;aspect=fixed;fillColor=#FF0000;" vertex="1" parent="1">
          <mxGeometry x="39" y="638" width="50" height="50" as="geometry" />
        </mxCell>
        <mxCell id="6Cl-wmceqnjq83iHJh8r-28" value="surgical instruments&lt;br&gt;" style="whiteSpace=wrap;html=1;aspect=fixed;" vertex="1" parent="1">
          <mxGeometry x="459" y="758" width="50" height="50" as="geometry" />
        </mxCell>
        <mxCell id="6Cl-wmceqnjq83iHJh8r-29" value="number plate&lt;br&gt;" style="whiteSpace=wrap;html=1;aspect=fixed;fillColor=#FF8000;" vertex="1" parent="1">
          <mxGeometry x="669" y="788" width="50" height="50" as="geometry" />
        </mxCell>
        <mxCell id="6Cl-wmceqnjq83iHJh8r-30" value="two wheeler&lt;br&gt;" style="whiteSpace=wrap;html=1;aspect=fixed;fillColor=#CC0066;" vertex="1" parent="1">
          <mxGeometry x="739" y="638" width="50" height="50" as="geometry" />
        </mxCell>
        <mxCell id="6Cl-wmceqnjq83iHJh8r-38" value="" style="endArrow=classic;html=1;rounded=0;exitX=0.5;exitY=1;exitDx=0;exitDy=0;entryX=0.5;entryY=0;entryDx=0;entryDy=0;" edge="1" parent="1" source="6Cl-wmceqnjq83iHJh8r-4" target="6Cl-wmceqnjq83iHJh8r-27">
          <mxGeometry relative="1" as="geometry">
            <mxPoint x="359" y="578" as="sourcePoint" />
            <mxPoint x="459" y="578" as="targetPoint" />
          </mxGeometry>
        </mxCell>
        <mxCell id="6Cl-wmceqnjq83iHJh8r-39" value="image" style="edgeLabel;resizable=0;html=1;align=center;verticalAlign=middle;" connectable="0" vertex="1" parent="6Cl-wmceqnjq83iHJh8r-38">
          <mxGeometry relative="1" as="geometry">
            <mxPoint y="-83" as="offset" />
          </mxGeometry>
        </mxCell>
        <mxCell id="6Cl-wmceqnjq83iHJh8r-40" value="" style="endArrow=classic;html=1;rounded=0;exitX=0.5;exitY=1;exitDx=0;exitDy=0;entryX=0.5;entryY=0;entryDx=0;entryDy=0;strokeColor=#FF0000;" edge="1" parent="1">
          <mxGeometry relative="1" as="geometry">
            <mxPoint x="39" y="423" as="sourcePoint" />
            <mxPoint x="39" y="638" as="targetPoint" />
          </mxGeometry>
        </mxCell>
        <mxCell id="6Cl-wmceqnjq83iHJh8r-41" value="Label" style="edgeLabel;resizable=0;html=1;align=center;verticalAlign=middle;fontColor=#FF0000;" connectable="0" vertex="1" parent="6Cl-wmceqnjq83iHJh8r-40">
          <mxGeometry relative="1" as="geometry">
            <mxPoint y="67" as="offset" />
          </mxGeometry>
        </mxCell>
        <mxCell id="6Cl-wmceqnjq83iHJh8r-42" value="" style="endArrow=classic;html=1;rounded=0;exitX=0.5;exitY=1;exitDx=0;exitDy=0;entryX=0.5;entryY=0;entryDx=0;entryDy=0;" edge="1" parent="1" target="6Cl-wmceqnjq83iHJh8r-27">
          <mxGeometry relative="1" as="geometry">
            <mxPoint x="263.5" y="423.5" as="sourcePoint" />
            <mxPoint x="159" y="638" as="targetPoint" />
            <Array as="points">
              <mxPoint x="264" y="468" />
              <mxPoint x="64" y="468" />
            </Array>
          </mxGeometry>
        </mxCell>
        <mxCell id="6Cl-wmceqnjq83iHJh8r-43" value="image" style="edgeLabel;resizable=0;html=1;align=center;verticalAlign=middle;" connectable="0" vertex="1" parent="6Cl-wmceqnjq83iHJh8r-42">
          <mxGeometry relative="1" as="geometry">
            <mxPoint x="273" y="-28" as="offset" />
          </mxGeometry>
        </mxCell>
        <mxCell id="6Cl-wmceqnjq83iHJh8r-44" value="" style="endArrow=classic;html=1;rounded=0;exitX=0.5;exitY=1;exitDx=0;exitDy=0;entryX=1;entryY=0;entryDx=0;entryDy=0;strokeColor=#FF0000;" edge="1" parent="1" target="6Cl-wmceqnjq83iHJh8r-27">
          <mxGeometry relative="1" as="geometry">
            <mxPoint x="349" y="423.5" as="sourcePoint" />
            <mxPoint x="109" y="639" as="targetPoint" />
            <Array as="points">
              <mxPoint x="349" y="508" />
              <mxPoint x="89" y="508" />
            </Array>
          </mxGeometry>
        </mxCell>
        <mxCell id="6Cl-wmceqnjq83iHJh8r-45" value="Label" style="edgeLabel;resizable=0;html=1;align=center;verticalAlign=middle;fontColor=#FF0000;" connectable="0" vertex="1" parent="6Cl-wmceqnjq83iHJh8r-44">
          <mxGeometry relative="1" as="geometry">
            <mxPoint x="-87" y="130" as="offset" />
          </mxGeometry>
        </mxCell>
        <mxCell id="6Cl-wmceqnjq83iHJh8r-46" value="" style="endArrow=classic;html=1;rounded=0;exitX=0.5;exitY=1;exitDx=0;exitDy=0;entryX=1;entryY=0.5;entryDx=0;entryDy=0;strokeColor=#FF0000;" edge="1" parent="1" target="6Cl-wmceqnjq83iHJh8r-27">
          <mxGeometry relative="1" as="geometry">
            <mxPoint x="239" y="423.5" as="sourcePoint" />
            <mxPoint x="129" y="658" as="targetPoint" />
            <Array as="points">
              <mxPoint x="239" y="488" />
              <mxPoint x="109" y="488" />
              <mxPoint x="109" y="648" />
              <mxPoint x="109" y="663" />
            </Array>
          </mxGeometry>
        </mxCell>
        <mxCell id="6Cl-wmceqnjq83iHJh8r-47" value="image" style="edgeLabel;resizable=0;html=1;align=center;verticalAlign=middle;" connectable="0" vertex="1" parent="6Cl-wmceqnjq83iHJh8r-46">
          <mxGeometry relative="1" as="geometry">
            <mxPoint x="465" y="-50" as="offset" />
          </mxGeometry>
        </mxCell>
        <mxCell id="6Cl-wmceqnjq83iHJh8r-48" value="" style="endArrow=classic;html=1;rounded=0;exitX=0;exitY=1;exitDx=0;exitDy=0;entryX=1;entryY=1;entryDx=0;entryDy=0;strokeColor=#FF0000;" edge="1" parent="1" source="6Cl-wmceqnjq83iHJh8r-15" target="6Cl-wmceqnjq83iHJh8r-27">
          <mxGeometry relative="1" as="geometry">
            <mxPoint x="573.5" y="423.5" as="sourcePoint" />
            <mxPoint x="573.5" y="638.5" as="targetPoint" />
            <Array as="points">
              <mxPoint x="549" y="528" />
              <mxPoint x="129" y="528" />
              <mxPoint x="129" y="688" />
            </Array>
          </mxGeometry>
        </mxCell>
        <mxCell id="6Cl-wmceqnjq83iHJh8r-49" value="Label" style="edgeLabel;resizable=0;html=1;align=center;verticalAlign=middle;fontColor=#FF0000;" connectable="0" vertex="1" parent="6Cl-wmceqnjq83iHJh8r-48">
          <mxGeometry relative="1" as="geometry">
            <mxPoint x="-152" y="140" as="offset" />
          </mxGeometry>
        </mxCell>
        <mxCell id="6Cl-wmceqnjq83iHJh8r-50" value="" style="endArrow=classic;html=1;rounded=0;exitX=0.5;exitY=1;exitDx=0;exitDy=0;entryX=0;entryY=0;entryDx=0;entryDy=0;strokeColor=#00CC00;" edge="1" parent="1" target="6Cl-wmceqnjq83iHJh8r-26">
          <mxGeometry relative="1" as="geometry">
            <mxPoint x="149" y="423.5" as="sourcePoint" />
            <mxPoint x="149" y="638.5" as="targetPoint" />
            <Array as="points">
              <mxPoint x="149" y="548" />
              <mxPoint x="239" y="548" />
            </Array>
          </mxGeometry>
        </mxCell>
        <mxCell id="6Cl-wmceqnjq83iHJh8r-51" value="Label" style="edgeLabel;resizable=0;html=1;align=center;verticalAlign=middle;fontColor=#00CC00;" connectable="0" vertex="1" parent="6Cl-wmceqnjq83iHJh8r-50">
          <mxGeometry relative="1" as="geometry">
            <mxPoint x="32" y="2" as="offset" />
          </mxGeometry>
        </mxCell>
        <mxCell id="6Cl-wmceqnjq83iHJh8r-52" value="" style="endArrow=classic;html=1;rounded=0;exitX=0.5;exitY=1;exitDx=0;exitDy=0;entryX=0.5;entryY=0;entryDx=0;entryDy=0;strokeColor=#00CC00;" edge="1" parent="1">
          <mxGeometry relative="1" as="geometry">
            <mxPoint x="289" y="423" as="sourcePoint" />
            <mxPoint x="289" y="638" as="targetPoint" />
          </mxGeometry>
        </mxCell>
        <mxCell id="6Cl-wmceqnjq83iHJh8r-56" value="" style="endArrow=classic;html=1;rounded=0;exitX=0.5;exitY=1;exitDx=0;exitDy=0;entryX=0.5;entryY=0;entryDx=0;entryDy=0;" edge="1" parent="1" target="6Cl-wmceqnjq83iHJh8r-24">
          <mxGeometry relative="1" as="geometry">
            <mxPoint x="379" y="423.5" as="sourcePoint" />
            <mxPoint x="379" y="638.5" as="targetPoint" />
            <Array as="points">
              <mxPoint x="379" y="578" />
              <mxPoint x="469" y="578" />
            </Array>
          </mxGeometry>
        </mxCell>
        <mxCell id="6Cl-wmceqnjq83iHJh8r-57" value="Label" style="edgeLabel;resizable=0;html=1;align=center;verticalAlign=middle;" connectable="0" vertex="1" parent="6Cl-wmceqnjq83iHJh8r-56">
          <mxGeometry relative="1" as="geometry" />
        </mxCell>
        <mxCell id="6Cl-wmceqnjq83iHJh8r-58" value="" style="endArrow=classic;html=1;rounded=0;exitX=0.5;exitY=1;exitDx=0;exitDy=0;entryX=0.5;entryY=0;entryDx=0;entryDy=0;" edge="1" parent="1" target="6Cl-wmceqnjq83iHJh8r-26">
          <mxGeometry relative="1" as="geometry">
            <mxPoint x="173.5" y="423.5" as="sourcePoint" />
            <mxPoint x="173.5" y="638.5" as="targetPoint" />
            <Array as="points">
              <mxPoint x="174" y="618" />
              <mxPoint x="263" y="618" />
            </Array>
          </mxGeometry>
        </mxCell>
        <mxCell id="6Cl-wmceqnjq83iHJh8r-59" value="image" style="edgeLabel;resizable=0;html=1;align=center;verticalAlign=middle;" connectable="0" vertex="1" parent="6Cl-wmceqnjq83iHJh8r-58">
          <mxGeometry relative="1" as="geometry">
            <mxPoint y="-126" as="offset" />
          </mxGeometry>
        </mxCell>
        <mxCell id="6Cl-wmceqnjq83iHJh8r-60" value="" style="endArrow=classic;html=1;rounded=0;exitX=0.986;exitY=0.883;exitDx=0;exitDy=0;entryX=0;entryY=0;entryDx=0;entryDy=0;strokeColor=#000000;exitPerimeter=0;" edge="1" parent="1" source="6Cl-wmceqnjq83iHJh8r-11" target="6Cl-wmceqnjq83iHJh8r-24">
          <mxGeometry relative="1" as="geometry">
            <mxPoint x="399" y="428" as="sourcePoint" />
            <mxPoint x="399" y="643" as="targetPoint" />
            <Array as="points">
              <mxPoint x="399" y="638" />
            </Array>
          </mxGeometry>
        </mxCell>
        <mxCell id="6Cl-wmceqnjq83iHJh8r-61" value="image" style="edgeLabel;resizable=0;html=1;align=center;verticalAlign=middle;" connectable="0" vertex="1" parent="6Cl-wmceqnjq83iHJh8r-60">
          <mxGeometry relative="1" as="geometry">
            <mxPoint x="65" y="-115" as="offset" />
          </mxGeometry>
        </mxCell>
        <mxCell id="6Cl-wmceqnjq83iHJh8r-62" value="" style="endArrow=classic;html=1;rounded=0;exitX=0.5;exitY=1;exitDx=0;exitDy=0;entryX=1;entryY=0.5;entryDx=0;entryDy=0;strokeColor=#00CC00;" edge="1" parent="1" target="6Cl-wmceqnjq83iHJh8r-26">
          <mxGeometry relative="1" as="geometry">
            <mxPoint x="599" y="418" as="sourcePoint" />
            <mxPoint x="599" y="633" as="targetPoint" />
            <Array as="points">
              <mxPoint x="599" y="538" />
              <mxPoint x="309" y="538" />
              <mxPoint x="309" y="663" />
            </Array>
          </mxGeometry>
        </mxCell>
        <mxCell id="6Cl-wmceqnjq83iHJh8r-63" value="Label" style="edgeLabel;resizable=0;html=1;align=center;verticalAlign=middle;fontColor=#00CC00;" connectable="0" vertex="1" parent="6Cl-wmceqnjq83iHJh8r-62">
          <mxGeometry relative="1" as="geometry">
            <mxPoint x="-131" y="42" as="offset" />
          </mxGeometry>
        </mxCell>
        <mxCell id="6Cl-wmceqnjq83iHJh8r-64" value="" style="endArrow=classic;html=1;rounded=0;exitX=0.5;exitY=1;exitDx=0;exitDy=0;entryX=0.5;entryY=0;entryDx=0;entryDy=0;" edge="1" parent="1">
          <mxGeometry relative="1" as="geometry">
            <mxPoint x="262.5" y="423" as="sourcePoint" />
            <mxPoint x="262.5" y="638" as="targetPoint" />
          </mxGeometry>
        </mxCell>
        <mxCell id="6Cl-wmceqnjq83iHJh8r-65" value="Label" style="edgeLabel;resizable=0;html=1;align=center;verticalAlign=middle;fontColor=#00CC00;" connectable="0" vertex="1" parent="6Cl-wmceqnjq83iHJh8r-64">
          <mxGeometry relative="1" as="geometry">
            <mxPoint x="26" y="69" as="offset" />
          </mxGeometry>
        </mxCell>
        <mxCell id="6Cl-wmceqnjq83iHJh8r-70" value="" style="endArrow=classic;html=1;rounded=0;exitX=0.5;exitY=1;exitDx=0;exitDy=0;entryX=0.5;entryY=0;entryDx=0;entryDy=0;" edge="1" parent="1">
          <mxGeometry relative="1" as="geometry">
            <mxPoint x="572.5" y="423.5" as="sourcePoint" />
            <mxPoint x="63" y="638" as="targetPoint" />
            <Array as="points">
              <mxPoint x="573" y="468" />
              <mxPoint x="63" y="468" />
            </Array>
          </mxGeometry>
        </mxCell>
        <mxCell id="6Cl-wmceqnjq83iHJh8r-71" value="image" style="edgeLabel;resizable=0;html=1;align=center;verticalAlign=middle;" connectable="0" vertex="1" parent="6Cl-wmceqnjq83iHJh8r-70">
          <mxGeometry relative="1" as="geometry">
            <mxPoint x="8" y="-18" as="offset" />
          </mxGeometry>
        </mxCell>
        <mxCell id="6Cl-wmceqnjq83iHJh8r-72" value="" style="endArrow=classic;html=1;rounded=0;exitX=0.5;exitY=1;exitDx=0;exitDy=0;entryX=0.5;entryY=0;entryDx=0;entryDy=0;" edge="1" parent="1" target="6Cl-wmceqnjq83iHJh8r-27">
          <mxGeometry relative="1" as="geometry">
            <mxPoint x="378.5" y="423.5" as="sourcePoint" />
            <mxPoint x="69" y="638.5" as="targetPoint" />
            <Array as="points">
              <mxPoint x="379" y="468.5" />
              <mxPoint x="64" y="468" />
            </Array>
          </mxGeometry>
        </mxCell>
        <mxCell id="6Cl-wmceqnjq83iHJh8r-73" value="Label" style="edgeLabel;resizable=0;html=1;align=center;verticalAlign=middle;fontColor=#FF0000;" connectable="0" vertex="1" parent="6Cl-wmceqnjq83iHJh8r-72">
          <mxGeometry relative="1" as="geometry">
            <mxPoint x="-66" y="140" as="offset" />
          </mxGeometry>
        </mxCell>
        <mxCell id="6Cl-wmceqnjq83iHJh8r-74" value="" style="endArrow=classic;html=1;rounded=0;exitX=0.5;exitY=1;exitDx=0;exitDy=0;entryX=0.5;entryY=0;entryDx=0;entryDy=0;" edge="1" parent="1" target="6Cl-wmceqnjq83iHJh8r-26">
          <mxGeometry relative="1" as="geometry">
            <mxPoint x="573.5" y="428" as="sourcePoint" />
            <mxPoint x="573.5" y="643" as="targetPoint" />
            <Array as="points">
              <mxPoint x="574" y="558" />
              <mxPoint x="389" y="558" />
              <mxPoint x="263" y="558" />
            </Array>
          </mxGeometry>
        </mxCell>
        <mxCell id="6Cl-wmceqnjq83iHJh8r-79" style="edgeStyle=orthogonalEdgeStyle;rounded=0;orthogonalLoop=1;jettySize=auto;html=1;exitX=0.5;exitY=1;exitDx=0;exitDy=0;" edge="1" parent="1" source="6Cl-wmceqnjq83iHJh8r-26" target="6Cl-wmceqnjq83iHJh8r-26">
          <mxGeometry relative="1" as="geometry" />
        </mxCell>
        <mxCell id="6Cl-wmceqnjq83iHJh8r-80" value="" style="endArrow=classic;html=1;rounded=0;exitX=0.5;exitY=1;exitDx=0;exitDy=0;entryX=0.5;entryY=0;entryDx=0;entryDy=0;strokeColor=#0000CC;" edge="1" parent="1">
          <mxGeometry relative="1" as="geometry">
            <mxPoint x="639" y="423.5" as="sourcePoint" />
            <mxPoint x="639" y="638.5" as="targetPoint" />
          </mxGeometry>
        </mxCell>
        <mxCell id="6Cl-wmceqnjq83iHJh8r-81" value="Label" style="edgeLabel;resizable=0;html=1;align=center;verticalAlign=middle;fontColor=#0000CC;" connectable="0" vertex="1" parent="6Cl-wmceqnjq83iHJh8r-80">
          <mxGeometry relative="1" as="geometry" />
        </mxCell>
        <mxCell id="6Cl-wmceqnjq83iHJh8r-82" value="" style="endArrow=classic;html=1;rounded=0;exitX=0.5;exitY=1;exitDx=0;exitDy=0;" edge="1" parent="1" target="6Cl-wmceqnjq83iHJh8r-29">
          <mxGeometry relative="1" as="geometry">
            <mxPoint x="663.5" y="423" as="sourcePoint" />
            <mxPoint x="663.5" y="638" as="targetPoint" />
            <Array as="points">
              <mxPoint x="664" y="518" />
              <mxPoint x="694" y="518" />
            </Array>
          </mxGeometry>
        </mxCell>
        <mxCell id="6Cl-wmceqnjq83iHJh8r-84" value="" style="endArrow=classic;html=1;rounded=0;exitX=0.5;exitY=1;exitDx=0;exitDy=0;entryX=0.5;entryY=0;entryDx=0;entryDy=0;" edge="1" parent="1" target="6Cl-wmceqnjq83iHJh8r-23">
          <mxGeometry relative="1" as="geometry">
            <mxPoint x="663.5" y="423.5" as="sourcePoint" />
            <mxPoint x="663.5" y="638.5" as="targetPoint" />
            <Array as="points">
              <mxPoint x="664" y="618" />
              <mxPoint x="614" y="618" />
            </Array>
          </mxGeometry>
        </mxCell>
        <mxCell id="6Cl-wmceqnjq83iHJh8r-85" value="image" style="edgeLabel;resizable=0;html=1;align=center;verticalAlign=middle;" connectable="0" vertex="1" parent="6Cl-wmceqnjq83iHJh8r-84">
          <mxGeometry relative="1" as="geometry">
            <mxPoint y="-106" as="offset" />
          </mxGeometry>
        </mxCell>
        <mxCell id="6Cl-wmceqnjq83iHJh8r-86" value="" style="endArrow=classic;html=1;rounded=0;exitX=0.5;exitY=1;exitDx=0;exitDy=0;entryX=0.5;entryY=0;entryDx=0;entryDy=0;" edge="1" parent="1" target="6Cl-wmceqnjq83iHJh8r-29">
          <mxGeometry relative="1" as="geometry">
            <mxPoint x="773.5" y="423.5" as="sourcePoint" />
            <mxPoint x="773.5" y="638.5" as="targetPoint" />
            <Array as="points">
              <mxPoint x="774" y="518" />
              <mxPoint x="694" y="518" />
            </Array>
          </mxGeometry>
        </mxCell>
        <mxCell id="6Cl-wmceqnjq83iHJh8r-88" value="" style="endArrow=classic;html=1;rounded=0;exitX=0.5;exitY=1;exitDx=0;exitDy=0;entryX=0.5;entryY=0;entryDx=0;entryDy=0;" edge="1" parent="1" target="6Cl-wmceqnjq83iHJh8r-30">
          <mxGeometry relative="1" as="geometry">
            <mxPoint x="773.5" y="423.5" as="sourcePoint" />
            <mxPoint x="773.5" y="638.5" as="targetPoint" />
            <Array as="points">
              <mxPoint x="774" y="588" />
              <mxPoint x="764" y="588" />
            </Array>
          </mxGeometry>
        </mxCell>
        <mxCell id="6Cl-wmceqnjq83iHJh8r-89" value="Label" style="edgeLabel;resizable=0;html=1;align=center;verticalAlign=middle;fontColor=#CC0066;" connectable="0" vertex="1" parent="6Cl-wmceqnjq83iHJh8r-88">
          <mxGeometry relative="1" as="geometry">
            <mxPoint x="15" y="64" as="offset" />
          </mxGeometry>
        </mxCell>
        <mxCell id="6Cl-wmceqnjq83iHJh8r-90" value="" style="endArrow=classic;html=1;rounded=0;entryX=0;entryY=0;entryDx=0;entryDy=0;exitX=1;exitY=1;exitDx=0;exitDy=0;" edge="1" parent="1" source="6Cl-wmceqnjq83iHJh8r-16" target="6Cl-wmceqnjq83iHJh8r-28">
          <mxGeometry relative="1" as="geometry">
            <mxPoint x="489" y="428" as="sourcePoint" />
            <mxPoint x="569" y="788" as="targetPoint" />
            <Array as="points">
              <mxPoint x="489" y="458" />
              <mxPoint x="539" y="458" />
              <mxPoint x="539" y="718" />
              <mxPoint x="459" y="718" />
            </Array>
          </mxGeometry>
        </mxCell>
        <mxCell id="6Cl-wmceqnjq83iHJh8r-91" value="Label" style="edgeLabel;resizable=0;html=1;align=center;verticalAlign=middle;" connectable="0" vertex="1" parent="6Cl-wmceqnjq83iHJh8r-90">
          <mxGeometry relative="1" as="geometry" />
        </mxCell>
        <mxCell id="6Cl-wmceqnjq83iHJh8r-92" value="" style="endArrow=classic;html=1;rounded=0;exitX=0.5;exitY=1;exitDx=0;exitDy=0;entryX=0.5;entryY=0;entryDx=0;entryDy=0;" edge="1" parent="1" source="6Cl-wmceqnjq83iHJh8r-16" target="6Cl-wmceqnjq83iHJh8r-28">
          <mxGeometry relative="1" as="geometry">
            <mxPoint x="547" y="473" as="sourcePoint" />
            <mxPoint x="547" y="688" as="targetPoint" />
            <Array as="points">
              <mxPoint x="464" y="498" />
              <mxPoint x="519" y="498" />
              <mxPoint x="519" y="738" />
              <mxPoint x="484" y="738" />
            </Array>
          </mxGeometry>
        </mxCell>
        <mxCell id="6Cl-wmceqnjq83iHJh8r-93" value="Label" style="edgeLabel;resizable=0;html=1;align=center;verticalAlign=middle;" connectable="0" vertex="1" parent="6Cl-wmceqnjq83iHJh8r-92">
          <mxGeometry relative="1" as="geometry" />
        </mxCell>
        <mxCell id="6Cl-wmceqnjq83iHJh8r-94" value="" style="endArrow=classic;html=1;rounded=0;entryX=0;entryY=0;entryDx=0;entryDy=0;exitX=1;exitY=0.5;exitDx=0;exitDy=0;strokeColor=#FF8000;" edge="1" parent="1" source="6Cl-wmceqnjq83iHJh8r-20" target="6Cl-wmceqnjq83iHJh8r-29">
          <mxGeometry relative="1" as="geometry">
            <mxPoint x="709" y="468" as="sourcePoint" />
            <mxPoint x="688" y="638.5" as="targetPoint" />
            <Array as="points">
              <mxPoint x="709" y="398" />
              <mxPoint x="709" y="658" />
              <mxPoint x="669" y="658" />
            </Array>
          </mxGeometry>
        </mxCell>
        <mxCell id="6Cl-wmceqnjq83iHJh8r-95" value="Label" style="edgeLabel;resizable=0;html=1;align=center;verticalAlign=middle;fontColor=#FF8000;" connectable="0" vertex="1" parent="6Cl-wmceqnjq83iHJh8r-94">
          <mxGeometry relative="1" as="geometry">
            <mxPoint x="-45" y="117" as="offset" />
          </mxGeometry>
        </mxCell>
        <mxCell id="6Cl-wmceqnjq83iHJh8r-96" value="" style="endArrow=classic;html=1;rounded=0;exitX=0.75;exitY=1;exitDx=0;exitDy=0;entryX=1;entryY=0;entryDx=0;entryDy=0;strokeColor=#CC0066;" edge="1" parent="1" source="6Cl-wmceqnjq83iHJh8r-19" target="6Cl-wmceqnjq83iHJh8r-30">
          <mxGeometry relative="1" as="geometry">
            <mxPoint x="799" y="473" as="sourcePoint" />
            <mxPoint x="799" y="688" as="targetPoint" />
            <Array as="points" />
          </mxGeometry>
        </mxCell>
        <mxCell id="6Cl-wmceqnjq83iHJh8r-97" value="image" style="edgeLabel;resizable=0;html=1;align=center;verticalAlign=middle;" connectable="0" vertex="1" parent="6Cl-wmceqnjq83iHJh8r-96">
          <mxGeometry relative="1" as="geometry">
            <mxPoint x="-24" y="-81" as="offset" />
          </mxGeometry>
        </mxCell>
        <mxCell id="6Cl-wmceqnjq83iHJh8r-98" value="" style="endArrow=classic;html=1;rounded=0;exitX=0;exitY=0.5;exitDx=0;exitDy=0;entryX=1;entryY=0;entryDx=0;entryDy=0;strokeColor=#FF8000;" edge="1" parent="1" source="6Cl-wmceqnjq83iHJh8r-19" target="6Cl-wmceqnjq83iHJh8r-29">
          <mxGeometry relative="1" as="geometry">
            <mxPoint x="729" y="423.5" as="sourcePoint" />
            <mxPoint x="729" y="638.5" as="targetPoint" />
            <Array as="points">
              <mxPoint x="719" y="398" />
            </Array>
          </mxGeometry>
        </mxCell>
        <mxCell id="6Cl-wmceqnjq83iHJh8r-99" value="Label" style="edgeLabel;resizable=0;html=1;align=center;verticalAlign=middle;fontColor=#FF8000;" connectable="0" vertex="1" parent="6Cl-wmceqnjq83iHJh8r-98">
          <mxGeometry relative="1" as="geometry">
            <mxPoint y="142" as="offset" />
          </mxGeometry>
        </mxCell>
        <mxCell id="6Cl-wmceqnjq83iHJh8r-100" value="a" style="whiteSpace=wrap;html=1;aspect=fixed;" vertex="1" parent="1">
          <mxGeometry x="103" y="1280" width="50" height="50" as="geometry" />
        </mxCell>
        <mxCell id="6Cl-wmceqnjq83iHJh8r-101" value="pc, mobile" style="whiteSpace=wrap;html=1;aspect=fixed;" vertex="1" parent="1">
          <mxGeometry x="159" y="1391" width="50" height="50" as="geometry" />
        </mxCell>
        <mxCell id="6Cl-wmceqnjq83iHJh8r-102" value="person" style="whiteSpace=wrap;html=1;aspect=fixed;" vertex="1" parent="1">
          <mxGeometry x="49" y="1391" width="50" height="50" as="geometry" />
        </mxCell>
        <mxCell id="6Cl-wmceqnjq83iHJh8r-103" value="" style="strokeWidth=2;html=1;shape=mxgraph.flowchart.annotation_2;align=left;labelPosition=right;pointerEvents=1;rotation=90;" vertex="1" parent="1">
          <mxGeometry x="98" y="1306" width="60" height="110" as="geometry" />
        </mxCell>
        <mxCell id="6Cl-wmceqnjq83iHJh8r-104" value="b" style="whiteSpace=wrap;html=1;aspect=fixed;" vertex="1" parent="1">
          <mxGeometry x="303" y="1280" width="50" height="50" as="geometry" />
        </mxCell>
        <mxCell id="6Cl-wmceqnjq83iHJh8r-105" value="person, tyres&lt;br&gt;" style="whiteSpace=wrap;html=1;aspect=fixed;" vertex="1" parent="1">
          <mxGeometry x="359" y="1391" width="50" height="50" as="geometry" />
        </mxCell>
        <mxCell id="6Cl-wmceqnjq83iHJh8r-106" value="person,pc, mobile" style="whiteSpace=wrap;html=1;aspect=fixed;" vertex="1" parent="1">
          <mxGeometry x="249" y="1391" width="50" height="50" as="geometry" />
        </mxCell>
        <mxCell id="6Cl-wmceqnjq83iHJh8r-107" value="" style="strokeWidth=2;html=1;shape=mxgraph.flowchart.annotation_2;align=left;labelPosition=right;pointerEvents=1;rotation=90;" vertex="1" parent="1">
          <mxGeometry x="298" y="1306" width="60" height="110" as="geometry" />
        </mxCell>
        <mxCell id="6Cl-wmceqnjq83iHJh8r-108" value="c" style="whiteSpace=wrap;html=1;aspect=fixed;" vertex="1" parent="1">
          <mxGeometry x="503" y="1280.5" width="50" height="50" as="geometry" />
        </mxCell>
        <mxCell id="6Cl-wmceqnjq83iHJh8r-109" value="person, mobile&lt;br&gt;" style="whiteSpace=wrap;html=1;aspect=fixed;" vertex="1" parent="1">
          <mxGeometry x="559" y="1391.5" width="50" height="50" as="geometry" />
        </mxCell>
        <mxCell id="6Cl-wmceqnjq83iHJh8r-110" value="surgical instruments&lt;br&gt;" style="whiteSpace=wrap;html=1;aspect=fixed;" vertex="1" parent="1">
          <mxGeometry x="449" y="1391.5" width="50" height="50" as="geometry" />
        </mxCell>
        <mxCell id="6Cl-wmceqnjq83iHJh8r-111" value="" style="strokeWidth=2;html=1;shape=mxgraph.flowchart.annotation_2;align=left;labelPosition=right;pointerEvents=1;rotation=90;" vertex="1" parent="1">
          <mxGeometry x="498" y="1306.5" width="60" height="110" as="geometry" />
        </mxCell>
        <mxCell id="6Cl-wmceqnjq83iHJh8r-112" value="d" style="whiteSpace=wrap;html=1;aspect=fixed;" vertex="1" parent="1">
          <mxGeometry x="703" y="1280" width="50" height="50" as="geometry" />
        </mxCell>
        <mxCell id="6Cl-wmceqnjq83iHJh8r-113" value="two wheeler, number_plate&lt;br&gt;" style="whiteSpace=wrap;html=1;aspect=fixed;" vertex="1" parent="1">
          <mxGeometry x="759" y="1391" width="50" height="50" as="geometry" />
        </mxCell>
        <mxCell id="6Cl-wmceqnjq83iHJh8r-114" value="four wheeler, number_plate" style="whiteSpace=wrap;html=1;aspect=fixed;" vertex="1" parent="1">
          <mxGeometry x="649" y="1391" width="50" height="50" as="geometry" />
        </mxCell>
        <mxCell id="6Cl-wmceqnjq83iHJh8r-115" value="" style="strokeWidth=2;html=1;shape=mxgraph.flowchart.annotation_2;align=left;labelPosition=right;pointerEvents=1;rotation=90;" vertex="1" parent="1">
          <mxGeometry x="698" y="1306" width="60" height="110" as="geometry" />
        </mxCell>
        <mxCell id="6Cl-wmceqnjq83iHJh8r-116" value="four wheeler" style="whiteSpace=wrap;html=1;aspect=fixed;fillColor=#0000CC;" vertex="1" parent="1">
          <mxGeometry x="599" y="1656" width="50" height="50" as="geometry" />
        </mxCell>
        <mxCell id="6Cl-wmceqnjq83iHJh8r-117" value="tyres" style="whiteSpace=wrap;html=1;aspect=fixed;strokeColor=#000000;fillColor=#000000;fontColor=#FFFFFF;" vertex="1" parent="1">
          <mxGeometry x="453" y="1656" width="50" height="50" as="geometry" />
        </mxCell>
        <mxCell id="6Cl-wmceqnjq83iHJh8r-118" value="mobile" style="whiteSpace=wrap;html=1;aspect=fixed;fillColor=#00CC00;" vertex="1" parent="1">
          <mxGeometry x="248" y="1656" width="50" height="50" as="geometry" />
        </mxCell>
        <mxCell id="6Cl-wmceqnjq83iHJh8r-119" value="person" style="whiteSpace=wrap;html=1;aspect=fixed;fillColor=#FF0000;" vertex="1" parent="1">
          <mxGeometry x="49" y="1656" width="50" height="50" as="geometry" />
        </mxCell>
        <mxCell id="6Cl-wmceqnjq83iHJh8r-120" value="surgical" style="whiteSpace=wrap;html=1;aspect=fixed;" vertex="1" parent="1">
          <mxGeometry x="469" y="1776" width="50" height="50" as="geometry" />
        </mxCell>
        <mxCell id="6Cl-wmceqnjq83iHJh8r-121" value="number plate" style="whiteSpace=wrap;html=1;aspect=fixed;fillColor=#FF8000;" vertex="1" parent="1">
          <mxGeometry x="679" y="1806" width="50" height="50" as="geometry" />
        </mxCell>
        <mxCell id="6Cl-wmceqnjq83iHJh8r-122" value="two wheeler" style="whiteSpace=wrap;html=1;aspect=fixed;fillColor=#CC0066;" vertex="1" parent="1">
          <mxGeometry x="749" y="1656" width="50" height="50" as="geometry" />
        </mxCell>
        <mxCell id="6Cl-wmceqnjq83iHJh8r-123" value="" style="endArrow=classic;html=1;rounded=0;exitX=0.5;exitY=1;exitDx=0;exitDy=0;entryX=0.5;entryY=0;entryDx=0;entryDy=0;strokeColor=#FF0000;strokeWidth=2;" edge="1" parent="1" source="6Cl-wmceqnjq83iHJh8r-102" target="6Cl-wmceqnjq83iHJh8r-119">
          <mxGeometry relative="1" as="geometry">
            <mxPoint x="369" y="1596" as="sourcePoint" />
            <mxPoint x="469" y="1596" as="targetPoint" />
          </mxGeometry>
        </mxCell>
        <mxCell id="6Cl-wmceqnjq83iHJh8r-127" value="" style="endArrow=classic;html=1;rounded=0;exitX=0.5;exitY=1;exitDx=0;exitDy=0;entryX=0.5;entryY=0;entryDx=0;entryDy=0;strokeColor=#FF0000;strokeWidth=2;" edge="1" parent="1" target="6Cl-wmceqnjq83iHJh8r-119">
          <mxGeometry relative="1" as="geometry">
            <mxPoint x="273.5" y="1441.5" as="sourcePoint" />
            <mxPoint x="169" y="1656" as="targetPoint" />
            <Array as="points">
              <mxPoint x="274" y="1486" />
              <mxPoint x="74" y="1486" />
            </Array>
          </mxGeometry>
        </mxCell>
        <mxCell id="6Cl-wmceqnjq83iHJh8r-139" value="" style="endArrow=classic;html=1;rounded=0;exitX=0.5;exitY=1;exitDx=0;exitDy=0;entryX=0.5;entryY=0;entryDx=0;entryDy=0;strokeWidth=2;" edge="1" parent="1" target="6Cl-wmceqnjq83iHJh8r-117">
          <mxGeometry relative="1" as="geometry">
            <mxPoint x="389" y="1441.5" as="sourcePoint" />
            <mxPoint x="389" y="1656.5" as="targetPoint" />
            <Array as="points">
              <mxPoint x="389" y="1596" />
              <mxPoint x="479" y="1596" />
            </Array>
          </mxGeometry>
        </mxCell>
        <mxCell id="6Cl-wmceqnjq83iHJh8r-141" value="" style="endArrow=classic;html=1;rounded=0;exitX=0.5;exitY=1;exitDx=0;exitDy=0;entryX=0.5;entryY=0;entryDx=0;entryDy=0;strokeColor=#00CC00;strokeWidth=2;" edge="1" parent="1" target="6Cl-wmceqnjq83iHJh8r-118">
          <mxGeometry relative="1" as="geometry">
            <mxPoint x="183.5" y="1441.5" as="sourcePoint" />
            <mxPoint x="183.5" y="1656.5" as="targetPoint" />
            <Array as="points">
              <mxPoint x="184" y="1636" />
              <mxPoint x="273" y="1636" />
            </Array>
          </mxGeometry>
        </mxCell>
        <mxCell id="6Cl-wmceqnjq83iHJh8r-147" value="" style="endArrow=classic;html=1;rounded=0;exitX=0.5;exitY=1;exitDx=0;exitDy=0;entryX=0.5;entryY=0;entryDx=0;entryDy=0;strokeColor=#00CC00;strokeWidth=2;" edge="1" parent="1">
          <mxGeometry relative="1" as="geometry">
            <mxPoint x="272.5" y="1441" as="sourcePoint" />
            <mxPoint x="272.5" y="1656" as="targetPoint" />
          </mxGeometry>
        </mxCell>
        <mxCell id="6Cl-wmceqnjq83iHJh8r-149" value="" style="endArrow=classic;html=1;rounded=0;exitX=0.5;exitY=1;exitDx=0;exitDy=0;entryX=0.5;entryY=0;entryDx=0;entryDy=0;strokeColor=#FF0000;strokeWidth=2;" edge="1" parent="1">
          <mxGeometry relative="1" as="geometry">
            <mxPoint x="582.5" y="1441" as="sourcePoint" />
            <mxPoint x="73" y="1655.5" as="targetPoint" />
            <Array as="points">
              <mxPoint x="583" y="1485.5" />
              <mxPoint x="73" y="1485.5" />
            </Array>
          </mxGeometry>
        </mxCell>
        <mxCell id="6Cl-wmceqnjq83iHJh8r-151" value="" style="endArrow=classic;html=1;rounded=0;exitX=0.5;exitY=1;exitDx=0;exitDy=0;entryX=0.5;entryY=0;entryDx=0;entryDy=0;strokeColor=#FF0000;strokeWidth=2;" edge="1" parent="1" target="6Cl-wmceqnjq83iHJh8r-119">
          <mxGeometry relative="1" as="geometry">
            <mxPoint x="388.5" y="1441.5" as="sourcePoint" />
            <mxPoint x="79" y="1656.5" as="targetPoint" />
            <Array as="points">
              <mxPoint x="389" y="1486.5" />
              <mxPoint x="74" y="1486" />
            </Array>
          </mxGeometry>
        </mxCell>
        <mxCell id="6Cl-wmceqnjq83iHJh8r-153" value="" style="endArrow=classic;html=1;rounded=0;exitX=0.5;exitY=1;exitDx=0;exitDy=0;entryX=0.5;entryY=0;entryDx=0;entryDy=0;strokeColor=#00CC00;strokeWidth=2;" edge="1" parent="1" target="6Cl-wmceqnjq83iHJh8r-118">
          <mxGeometry relative="1" as="geometry">
            <mxPoint x="583.5" y="1446" as="sourcePoint" />
            <mxPoint x="583.5" y="1661" as="targetPoint" />
            <Array as="points">
              <mxPoint x="584" y="1576" />
              <mxPoint x="399" y="1576" />
              <mxPoint x="273" y="1576" />
            </Array>
          </mxGeometry>
        </mxCell>
        <mxCell id="6Cl-wmceqnjq83iHJh8r-155" style="edgeStyle=orthogonalEdgeStyle;rounded=0;orthogonalLoop=1;jettySize=auto;html=1;exitX=0.5;exitY=1;exitDx=0;exitDy=0;" edge="1" parent="1" source="6Cl-wmceqnjq83iHJh8r-118" target="6Cl-wmceqnjq83iHJh8r-118">
          <mxGeometry relative="1" as="geometry" />
        </mxCell>
        <mxCell id="6Cl-wmceqnjq83iHJh8r-158" value="" style="endArrow=classic;html=1;rounded=0;exitX=0.5;exitY=1;exitDx=0;exitDy=0;strokeColor=#FF8000;strokeWidth=2;" edge="1" parent="1" target="6Cl-wmceqnjq83iHJh8r-121">
          <mxGeometry relative="1" as="geometry">
            <mxPoint x="673.5" y="1441" as="sourcePoint" />
            <mxPoint x="673.5" y="1656" as="targetPoint" />
            <Array as="points">
              <mxPoint x="674" y="1536" />
              <mxPoint x="704" y="1536" />
            </Array>
          </mxGeometry>
        </mxCell>
        <mxCell id="6Cl-wmceqnjq83iHJh8r-160" value="" style="endArrow=classic;html=1;rounded=0;exitX=0.5;exitY=1;exitDx=0;exitDy=0;entryX=0.5;entryY=0;entryDx=0;entryDy=0;strokeColor=#0000CC;strokeWidth=2;" edge="1" parent="1" target="6Cl-wmceqnjq83iHJh8r-116">
          <mxGeometry relative="1" as="geometry">
            <mxPoint x="673.5" y="1441.5" as="sourcePoint" />
            <mxPoint x="673.5" y="1656.5" as="targetPoint" />
            <Array as="points">
              <mxPoint x="674" y="1636" />
              <mxPoint x="624" y="1636" />
            </Array>
          </mxGeometry>
        </mxCell>
        <mxCell id="6Cl-wmceqnjq83iHJh8r-162" value="" style="endArrow=classic;html=1;rounded=0;exitX=0.5;exitY=1;exitDx=0;exitDy=0;entryX=0.5;entryY=0;entryDx=0;entryDy=0;strokeColor=#FF8000;strokeWidth=2;" edge="1" parent="1" target="6Cl-wmceqnjq83iHJh8r-121">
          <mxGeometry relative="1" as="geometry">
            <mxPoint x="783.5" y="1441.5" as="sourcePoint" />
            <mxPoint x="783.5" y="1656.5" as="targetPoint" />
            <Array as="points">
              <mxPoint x="784" y="1536" />
              <mxPoint x="704" y="1536" />
            </Array>
          </mxGeometry>
        </mxCell>
        <mxCell id="6Cl-wmceqnjq83iHJh8r-164" value="" style="endArrow=classic;html=1;rounded=0;exitX=0.5;exitY=1;exitDx=0;exitDy=0;entryX=0.5;entryY=0;entryDx=0;entryDy=0;strokeColor=#CC0066;strokeWidth=3;" edge="1" parent="1" target="6Cl-wmceqnjq83iHJh8r-122">
          <mxGeometry relative="1" as="geometry">
            <mxPoint x="783.5" y="1441.5" as="sourcePoint" />
            <mxPoint x="783.5" y="1656.5" as="targetPoint" />
            <Array as="points">
              <mxPoint x="784" y="1606" />
              <mxPoint x="774" y="1606" />
            </Array>
          </mxGeometry>
        </mxCell>
        <mxCell id="6Cl-wmceqnjq83iHJh8r-168" value="" style="endArrow=classic;html=1;rounded=0;exitX=0.5;exitY=1;exitDx=0;exitDy=0;entryX=0.5;entryY=0;entryDx=0;entryDy=0;" edge="1" parent="1" source="6Cl-wmceqnjq83iHJh8r-110" target="6Cl-wmceqnjq83iHJh8r-120">
          <mxGeometry relative="1" as="geometry">
            <mxPoint x="557" y="1491" as="sourcePoint" />
            <mxPoint x="557" y="1706" as="targetPoint" />
            <Array as="points">
              <mxPoint x="474" y="1516" />
              <mxPoint x="529" y="1516" />
              <mxPoint x="529" y="1756" />
              <mxPoint x="494" y="1756" />
            </Array>
          </mxGeometry>
        </mxCell>
        <mxCell id="6Cl-wmceqnjq83iHJh8r-177" value="&lt;b&gt;&lt;font style=&quot;font-size: 20px;&quot;&gt;dsal/features&lt;/font&gt;&lt;/b&gt;" style="strokeWidth=2;html=1;shape=mxgraph.flowchart.database;whiteSpace=wrap;" vertex="1" parent="1">
          <mxGeometry x="39" y="1930" width="60" height="60" as="geometry" />
        </mxCell>
        <mxCell id="6Cl-wmceqnjq83iHJh8r-178" value="" style="endArrow=none;html=1;rounded=0;strokeWidth=3;" edge="1" parent="1">
          <mxGeometry width="50" height="50" relative="1" as="geometry">
            <mxPoint x="29" y="1870" as="sourcePoint" />
            <mxPoint x="29" y="1620" as="targetPoint" />
          </mxGeometry>
        </mxCell>
        <mxCell id="6Cl-wmceqnjq83iHJh8r-179" value="" style="endArrow=none;html=1;rounded=0;strokeWidth=3;" edge="1" parent="1">
          <mxGeometry width="50" height="50" relative="1" as="geometry">
            <mxPoint x="829" y="1870" as="sourcePoint" />
            <mxPoint x="829" y="1620" as="targetPoint" />
            <Array as="points">
              <mxPoint x="829" y="1720" />
            </Array>
          </mxGeometry>
        </mxCell>
        <mxCell id="6Cl-wmceqnjq83iHJh8r-180" value="" style="endArrow=none;html=1;rounded=0;strokeWidth=3;" edge="1" parent="1">
          <mxGeometry width="50" height="50" relative="1" as="geometry">
            <mxPoint x="29" y="1620" as="sourcePoint" />
            <mxPoint x="829" y="1620" as="targetPoint" />
          </mxGeometry>
        </mxCell>
        <mxCell id="6Cl-wmceqnjq83iHJh8r-181" value="" style="endArrow=none;html=1;rounded=0;fontSize=20;fontStyle=1;strokeWidth=3;" edge="1" parent="1">
          <mxGeometry width="50" height="50" relative="1" as="geometry">
            <mxPoint x="29" y="1870" as="sourcePoint" />
            <mxPoint x="829" y="1870" as="targetPoint" />
            <Array as="points">
              <mxPoint x="429" y="1870" />
            </Array>
          </mxGeometry>
        </mxCell>
        <mxCell id="6Cl-wmceqnjq83iHJh8r-183" value="" style="endArrow=classic;html=1;rounded=0;entryX=1;entryY=0.5;entryDx=0;entryDy=0;entryPerimeter=0;" edge="1" parent="1" target="6Cl-wmceqnjq83iHJh8r-177">
          <mxGeometry width="50" height="50" relative="1" as="geometry">
            <mxPoint x="439" y="1870" as="sourcePoint" />
            <mxPoint x="489" y="1920" as="targetPoint" />
            <Array as="points">
              <mxPoint x="439" y="1960" />
            </Array>
          </mxGeometry>
        </mxCell>
        <mxCell id="6Cl-wmceqnjq83iHJh8r-184" value="" style="endArrow=none;html=1;rounded=0;strokeWidth=3;" edge="1" parent="1">
          <mxGeometry width="50" height="50" relative="1" as="geometry">
            <mxPoint x="29" y="1250" as="sourcePoint" />
            <mxPoint x="829" y="1250" as="targetPoint" />
          </mxGeometry>
        </mxCell>
        <mxCell id="6Cl-wmceqnjq83iHJh8r-185" value="" style="endArrow=none;html=1;rounded=0;strokeWidth=3;" edge="1" parent="1">
          <mxGeometry width="50" height="50" relative="1" as="geometry">
            <mxPoint x="29" y="1460" as="sourcePoint" />
            <mxPoint x="829" y="1460" as="targetPoint" />
          </mxGeometry>
        </mxCell>
        <mxCell id="6Cl-wmceqnjq83iHJh8r-186" value="" style="endArrow=none;html=1;rounded=0;strokeWidth=3;" edge="1" parent="1">
          <mxGeometry width="50" height="50" relative="1" as="geometry">
            <mxPoint x="829" y="1250" as="sourcePoint" />
            <mxPoint x="829" y="1460" as="targetPoint" />
          </mxGeometry>
        </mxCell>
        <mxCell id="6Cl-wmceqnjq83iHJh8r-187" value="" style="endArrow=none;html=1;rounded=0;strokeWidth=3;" edge="1" parent="1">
          <mxGeometry width="50" height="50" relative="1" as="geometry">
            <mxPoint x="29" y="1250" as="sourcePoint" />
            <mxPoint x="29" y="1460" as="targetPoint" />
          </mxGeometry>
        </mxCell>
        <mxCell id="6Cl-wmceqnjq83iHJh8r-189" style="edgeStyle=orthogonalEdgeStyle;rounded=0;orthogonalLoop=1;jettySize=auto;html=1;exitX=1;exitY=0.5;exitDx=0;exitDy=0;exitPerimeter=0;" edge="1" parent="1" source="6Cl-wmceqnjq83iHJh8r-188">
          <mxGeometry relative="1" as="geometry">
            <mxPoint x="409" y="1249.9999999999998" as="targetPoint" />
          </mxGeometry>
        </mxCell>
        <mxCell id="6Cl-wmceqnjq83iHJh8r-188" value="customer data&lt;br&gt;" style="strokeWidth=2;html=1;shape=mxgraph.flowchart.database;whiteSpace=wrap;" vertex="1" parent="1">
          <mxGeometry x="19" y="1130" width="60" height="60" as="geometry" />
        </mxCell>
        <mxCell id="6Cl-wmceqnjq83iHJh8r-190" value="dsal/labelling" style="strokeWidth=2;html=1;shape=mxgraph.flowchart.database;whiteSpace=wrap;" vertex="1" parent="1">
          <mxGeometry x="270" y="1040" width="73" height="60" as="geometry" />
        </mxCell>
        <mxCell id="6Cl-wmceqnjq83iHJh8r-191" style="edgeStyle=orthogonalEdgeStyle;rounded=0;orthogonalLoop=1;jettySize=auto;html=1;entryX=0.5;entryY=0;entryDx=0;entryDy=0;entryPerimeter=0;" edge="1" parent="1" source="6Cl-wmceqnjq83iHJh8r-190" target="6Cl-wmceqnjq83iHJh8r-188">
          <mxGeometry relative="1" as="geometry" />
        </mxCell>
      </root>
    </mxGraphModel>
  </diagram>
</mxfile>
